<svg xmlns="http://www.w3.org/2000/svg" width="36" height="36" viewBox="0 0 36 36"><defs><style>.a,.c{fill:none;}.b{fill:#3a3768;}.c{stroke:#e1dfff;stroke-width:5px;}.d{stroke:none;}</style></defs><g transform="translate(4)"><path class="a" d="M0,0H30V30H0Z"/><path class="b" d="M27,6.685,21.25,1.86,19.638,3.773,25.388,8.6ZM9.35,3.773,7.75,1.86,2,6.673,3.613,8.585,9.35,3.773Zm5.775,5.763H13.25v7.5L19.188,20.6l.938-1.537-5-2.962Zm-.625-5a11.25,11.25,0,1,0,11.25,11.25A11.251,11.251,0,0,0,14.5,4.535Zm0,20a8.75,8.75,0,1,1,8.75-8.75A8.744,8.744,0,0,1,14.5,24.535Z" transform="translate(0.5 0.465)"/><g class="c" transform="translate(-4)"><circle class="d" cx="18" cy="18" r="18"/><circle class="a" cx="18" cy="18" r="15.5"/></g></g></svg>