<svg xmlns="http://www.w3.org/2000/svg" width="52.201" height="56.004" viewBox="0 0 52.201 56.004"><defs><style>.a{fill:#3f3d56;}.a,.c,.d{stroke:#3a3768;}.b{fill:#6c63ff;}.c{fill:#fffefe;}.c,.d{stroke-width:0.2px;}.d,.e{fill:#fff;}</style></defs><g transform="translate(0.101 0.1)"><path class="a" d="M151.4,500h8.56c0,1.346-1.513,2.437-3.379,2.437h-1.8c-1.866,0-3.379-1.091-3.379-2.437Z" transform="translate(-129.162 -447.033)"/><path class="b" d="M348.878,226.857v-2.264c0-2.736,4.127-5.324,6.8-7.17,3.773-2.6,5.757-6.1,5.757-10.189.029-7.5-8.383-13.6-18.788-13.623s-18.864,6.045-18.893,13.548q0,.038,0,.076a12.373,12.373,0,0,0,5.757,10.189c2.663,1.812,6.8,4.406,6.8,7.17v2.264" transform="translate(-316.075 -179.345)"/><path class="a" d="M346.319,224.811c-.243,0-.441-.142-.441-.318v-2.264c0-2.662,3.64-5.146,6.3-6.961l.641-.439c3.677-2.535,5.621-5.979,5.621-9.959,0-7.44-8.082-13.268-18.4-13.268h-.052c-10.108.008-18.308,5.9-18.348,13.193v.074a12.084,12.084,0,0,0,5.619,9.959l.562.38c2.693,1.818,6.38,4.307,6.38,7.021v2.264c0,.176-.2.318-.441.318s-.441-.142-.441-.318v-2.264c0-2.438-3.526-4.819-6.1-6.557l-.564-.382a12.655,12.655,0,0,1-5.9-10.42v-.076c.03-7.632,8.651-13.827,19.228-13.827h.054a23.482,23.482,0,0,1,13.663,4.051c3.622,2.612,5.644,6.159,5.617,9.852,0,4.158-2.038,7.761-5.893,10.419l-.644.441c-2.542,1.735-6.023,4.111-6.023,6.5v2.264c0,.176-.2.318-.441.318Z" transform="translate(-313.516 -176.981)"/><path class="b" d="M427.61,540h-8.374c-.406,0-.735-.237-.735-.53s.329-.53.735-.53h8.374c.406,0,.735.237.735.53S428.016,540,427.61,540Z" transform="translate(-396.9 -488.096)"/><path class="c" d="M278.5,161.9a.913.913,0,0,1-.483-.131l-6.308-3.971a.435.435,0,0,1-.07-.747A.944.944,0,0,1,272.68,157l6.308,3.971a.44.44,0,0,1,.2.585A.767.767,0,0,1,278.5,161.9Z" transform="translate(-271.462 -146.496)"/><path class="d" d="M573.211,161.9a.767.767,0,0,1-.688-.344.44.44,0,0,1,.2-.585L579.036,157a.944.944,0,0,1,1.036.051.435.435,0,0,1-.07.747l-6.308,3.971A.913.913,0,0,1,573.211,161.9Z" transform="translate(-528.254 -146.496)"/><path class="b" d="M417.548,522.257h-12.56c-.406,0-.735-.237-.735-.53s.329-.53.735-.53h12.56c.406,0,.735.237.735.53S417.953,522.257,417.548,522.257Z" transform="translate(-384.745 -472.229)"/><path class="e" d="M447.736,401.592c-.406,0-.735-.237-.735-.53V388.987c0-.293.329-.53.735-.53s.735.237.735.53v12.076C448.47,401.355,448.141,401.592,447.736,401.592Z" transform="translate(-421.213 -353.55)"/><path class="e" d="M418.865,376.776a13.98,13.98,0,0,1-5.41-1.614.442.442,0,0,1-.151-.741.934.934,0,0,1,1.028-.109,8.017,8.017,0,0,0,9.067,0,.934.934,0,0,1,1.028.109.442.442,0,0,1-.151.741A13.982,13.982,0,0,1,418.865,376.776Z" transform="translate(-392.342 -340.809)"/><path class="d" d="M447.735,69.061c-.406,0-.735-.237-.735-.53V59.475c0-.293.329-.53.735-.53s.735.237.735.53v9.057c0,.292-.329.53-.735.53Z" transform="translate(-421.212 -58.945)"/></g></svg>