<svg xmlns="http://www.w3.org/2000/svg" width="90" height="90" viewBox="0 0 90 90"><defs><style>.a{fill:none;}.b{fill:#fff;}</style></defs><path class="a" d="M0,0H90V90H0Z"/><path class="b" d="M39.463,2A37.5,37.5,0,1,0,77,39.5,37.482,37.482,0,0,0,39.463,2ZM39.5,69.5a30,30,0,1,1,30-30A29.992,29.992,0,0,1,39.5,69.5ZM52.625,35.75A5.625,5.625,0,1,0,47,30.125,5.617,5.617,0,0,0,52.625,35.75Zm-26.25,0a5.625,5.625,0,1,0-5.625-5.625A5.617,5.617,0,0,0,26.375,35.75ZM39.5,60.125A20.611,20.611,0,0,0,58.663,47H20.337A20.611,20.611,0,0,0,39.5,60.125Z" transform="translate(5.5 5.5)"/></svg>