<svg xmlns="http://www.w3.org/2000/svg" width="96.361" height="69.885" viewBox="0 0 96.361 69.885"><defs><style>.a{opacity:0.9;}.b{fill:#6c63ff;}.c{fill:#3f3d56;}.d{fill:#e6e6e6;}.e{fill:#ffb8b8;}.f{fill:#2f2e41;}.g{fill:#fff;}.h{fill:#575a89;}.i{opacity:0.2;}.j{fill:#ffb9b9;}.k{fill:#a0616a;}.l{fill:#d0cde1;}.m{fill:none;}</style></defs><g class="a" transform="translate(0)"><ellipse class="b" cx="10.114" cy="17.482" rx="10.114" ry="17.482" transform="translate(2.99 12.214)"/><path class="c" d="M264.147,263.606a109.893,109.893,0,0,1,1.531-12.8l-.221-.032a110.058,110.058,0,0,0-1.534,12.819A112.863,112.863,0,0,0,265.458,292l.221-.031A112.7,112.7,0,0,1,264.147,263.606Z" transform="translate(-251.135 -233.728)"/><path class="c" d="M0,0,10.018.619l.016.238L.016.238Z" transform="translate(13 30.297) rotate(-28.157)"/><path class="c" d="M0,0,.238.016.857,10.034l-.238-.016Z" transform="translate(3.345 28.396) rotate(-61.858)"/><ellipse class="b" cx="13.122" cy="22.68" rx="13.122" ry="22.68" transform="translate(70.117 0)"/><path class="c" d="M924.239,147.512a142.573,142.573,0,0,1,1.987-16.61l-.209-.03a142.745,142.745,0,0,0-1.99,16.627,146.384,146.384,0,0,0,1.99,36.848l.209-.029A146.229,146.229,0,0,1,924.239,147.512Z" transform="translate(-841.159 -124.599)"/><path class="c" d="M0,0,13,.8l.016.24-13-.8Z" transform="translate(83.121 23.49) rotate(-28.157)"/><path class="c" d="M0,0,.24.016l.8,13L.8,13Z" transform="translate(70.596 20.965) rotate(-61.858)"/><ellipse class="d" cx="4.903" cy="8.474" rx="4.903" ry="8.474" transform="translate(62.527 34.556)"/><path class="c" d="M741.426,478.18l.029.046,4.433-2.01-.1-.158-4.352,1.973a53.973,53.973,0,0,1,.743-6.326l-.209-.03a55.956,55.956,0,0,0-.8,7.38l-4.39-1.99-.1.158,4.433,2.01.053-.084a53.211,53.211,0,0,0,.808,12.524l.209-.029A53.955,53.955,0,0,1,741.426,478.18Z" transform="translate(-674.001 -434.785)"/><path class="c" d="M237.96,683.961a183.148,183.148,0,0,0-65.058-5.084c-16.539,1.675-27.033,5.048-27.137,5.082l-.076-.168c.1-.034,10.624-3.415,27.188-5.092a185.965,185.965,0,0,1,29.365-.636,178.009,178.009,0,0,1,35.782,5.727Z" transform="translate(-145.688 -622.352)"/><path class="c" d="M462.2,713.024a1.283,1.283,0,0,1,1.575-1.149" transform="translate(-428.634 -653.395)"/><ellipse class="b" cx="0.751" cy="0.637" rx="0.751" ry="0.637" transform="translate(32.391 57.119)"/><rect class="c" width="0.212" height="1.258" transform="translate(33.02 58.828)"/><path class="c" d="M720.2,716.024a1.283,1.283,0,0,1,1.575-1.149" transform="translate(-659.272 -656.125)"/><ellipse class="b" cx="0.751" cy="0.637" rx="0.751" ry="0.637" transform="translate(59.752 57.389)"/><rect class="c" width="0.212" height="1.258" transform="translate(60.381 59.097)"/><path class="c" d="M295.2,691.024a1.283,1.283,0,0,1,1.575-1.149" transform="translate(-279.344 -633.371)"/><ellipse class="b" cx="0.751" cy="0.637" rx="0.751" ry="0.637" transform="translate(14.68 55.143)"/><rect class="c" width="0.212" height="1.258" transform="translate(15.309 56.851)"/><path class="c" d="M404.2,672.024a1.282,1.282,0,0,1,1.575-1.149" transform="translate(-376.785 -616.078)"/><ellipse class="b" cx="0.751" cy="0.637" rx="0.751" ry="0.637" transform="translate(26.24 53.436)"/><rect class="c" width="0.212" height="1.258" transform="translate(26.869 55.144)"/><path class="c" d="M677.2,699.024a1.282,1.282,0,0,1,1.575-1.149" transform="translate(-620.833 -640.653)"/><ellipse class="b" cx="0.751" cy="0.637" rx="0.751" ry="0.637" transform="translate(55.192 55.861)"/><rect class="c" width="0.212" height="1.258" transform="translate(55.821 57.57)"/><path class="e" d="M960.6,681.78l4.365,5.483-4.064,3.443-.527-.893.9-1.785s-.151-1.658-.677-2.1-2.86-3.124-2.86-3.124Z" transform="translate(-871.618 -626.014)"/><path class="f" d="M871.291,484.5s.828,1.11-.9,5.891c0,0,8.074,11.543,6.794,12.308s-4.741,2.458-5.645,1.948-7.471-17.788-7.471-17.788Z" transform="translate(-787.881 -446.462)"/><path class="f" d="M964.035,731.808l1.317,1.116c.677.574,1.129,1.4-.15,2.1s-5.72,3.315-7.225,2.486,1.806-1.594,1.806-1.594.548-1.72.838-1.338a2.328,2.328,0,0,1,.291,1.147Z" transform="translate(-871.482 -671.548)"/><path class="e" d="M797.274,709.319a35.258,35.258,0,0,0-2.408,4.208c0,.446.151,1.721.151,1.721l-4.591.956-1.58-.638.527-1.148s2.86-.829,3.462-2.423,1.279-3.251,1.279-3.251Z" transform="translate(-720.637 -650.557)"/><ellipse class="e" cx="3.161" cy="2.678" rx="3.161" ry="2.678" transform="translate(76.26 15.984)"/><path class="e" d="M886.774,285.282l1.509,3.673,3.307-1.25a24.856,24.856,0,0,1-2.258-3.315Z" transform="translate(-808.181 -264.325)"/><path class="f" d="M836.484,439.8h3.988s2.86,3.7,1.2,7.586a17.755,17.755,0,0,0-.756,2.416c-.578,2.268-1.153,5.341-1.742,8.164-.828,3.966-1.684,7.44-2.615,7.5-1.881.127-5.54.106-5.54-.531s2.451-19.081,2.451-19.081l.527-.765.1-3.332A2.228,2.228,0,0,1,836.484,439.8Z" transform="translate(-758.342 -405.771)"/><path class="f" d="M770.088,761.613a3.361,3.361,0,0,1,.64,2.136c-.226.893-.6.765-2.258.893s-7.3.127-7.3-.765,4.4-2.052,4.422-1.7.169,1.058-.282,1.185-.038.032-.038.032Z" transform="translate(-695.897 -698.675)"/><path class="g" d="M858.954,522.26s-.327,4.529-2.511,3.18.851-3.784.851-3.784Z" transform="translate(-780.361 -480.277)"/><path class="h" d="M862.274,316.094a.729.729,0,0,0,.649-.065.553.553,0,0,0,.246-.355c.316-1.542.7-5.816.921-7.977a8.005,8.005,0,0,0-1.121-4.825l-.818-.952a.714.714,0,0,0-.769-.183s-2.553,2.244-2.562,2.33c-.04.372-.344,1.2-1.928,2.538-1.733,1.468-1.742,2.749-1.7,3.107a.665.665,0,0,1,0,.07,1.351,1.351,0,0,0,.076.474c.726,1.938.157,4.259-.755,6.681a.508.508,0,0,0,.26.593c.267.154-.053-.074.042.024.629.653,1.534-.257,2.57-1.25.361-.346.769-.738,1.251-1.146.662-.561,1.928.719,2.517.719A3.149,3.149,0,0,1,862.274,316.094Z" transform="translate(-779.322 -280.075)"/><path class="h" d="M871.915,325.64s1.653,1.181.714,2.713a4.61,4.61,0,0,0-.814,2.661s-.25,10.522-3.185,10.011l-1.335,3.122-2.411-.737,1.394-2.754s-1.117-.059-.79-.7c.229-.453,1.464-5.365,2.179-8.249.3-1.222.512-2.08.512-2.08S869.129,325.322,871.915,325.64Z" transform="translate(-788.613 -301.854)"/><path class="i" d="M780.927,320.655l-.93,5.167.5-5.524Z" transform="translate(-697.278 -291.522)"/><path class="f" d="M861.888,229.375s-.531-3.5,3.8-2.354a3.761,3.761,0,0,1,4.112,2.8l1.028,3.44-.5-.231-.234.433-.812.174-.347-.584-.168.71-6.651.562s2.979-1.492,3.026-4.167l-.567.508Z" transform="translate(-785.916 -211.899)"/><path class="i" d="M763.014,498.385l1.483-8.372-1.206,9.038Z" transform="translate(-682.095 -445.991)"/><ellipse class="f" cx="1.672" cy="1.417" rx="1.672" ry="1.417" transform="translate(81.67 13.739)"/><path class="f" d="M913.52,212.337a1.582,1.582,0,0,1,1.672-1.324c-.035,0-.069-.008-.1-.01a1.6,1.6,0,0,0-1.776,1.323,1.521,1.521,0,0,0,1.562,1.5c.035,0,.07,0,.1,0A1.5,1.5,0,0,1,913.52,212.337Z" transform="translate(-831.901 -197.528)"/><path class="i" d="M728.461,335.128l-1.471,6.681,1.907-7.379Z" transform="translate(-649.892 -304.385)"/><path class="g" d="M865.131,270.694l-.858.548a3.342,3.342,0,0,1-1.786-2.079l.935-.4C863.495,269.611,864.205,270.175,865.131,270.694Z" transform="translate(-786.469 -250.102)"/><path class="g" d="M872.163,268.883h-2.137a.061.061,0,1,1,0-.121h2.137a.061.061,0,1,1,0,.121Z" transform="translate(-793.146 -250.102)"/><path class="g" d="M886.147,276.807a.076.076,0,0,1-.059-.027.053.053,0,0,1-.007-.056l.57-1.207a.076.076,0,0,1,.093-.034.058.058,0,0,1,.04.078l-.57,1.207A.072.072,0,0,1,886.147,276.807Z" transform="translate(-807.557 -256.216)"/><ellipse class="e" cx="0.523" cy="0.62" rx="0.523" ry="0.62" transform="translate(78.639 18.255)"/><path class="f" d="M399.191,187.793l5.566,1.079,2.352-3.757-4.759-1.574Z" transform="translate(-356.856 -167.051)"/><path class="j" d="M537.573,506.84s-1.789,3.473-1.789,4.484c0,0,.708,2.747.485,3.505l-.783,1.421-1.64-.568-.447-3.789.075-6.063Z" transform="translate(-492.281 -465.871)"/><path class="j" d="M580.651,280.038a9.127,9.127,0,0,1-.149,2.716c-.3.632,1.118,1.832,1.118,1.832l2.237-2.463s-1.491-1.263-1.118-2.652Z" transform="translate(-534.353 -259.847)"/><path class="d" d="M530.03,445.468s-2.162,3.41-.075,3.158,1.379-3.252,1.379-3.252" transform="translate(-488.391 -410.846)"/><path class="j" d="M393.936,287.07l.708-5.968-.037-3.631-1.64.253v3.347l-.335,6.094" transform="translate(-350.992 -252.542)"/><path class="f" d="M518.647,599.7l3.206-1.074.373,5.368s.671,1.642.447,2.274c0,0,.149,1.074-.224,1.137a7.253,7.253,0,0,1-1.491.126c-.075-.063-.075-.253-.075-.253s-.745.442-.82.947c0,0-3.131.821-3.206.063s1.566-1.389,1.566-1.389l1.267-1.642Z" transform="translate(-477.493 -550.328)"/><path class="j" d="M600.49,506.84s-1.789,3.473-1.789,4.484c0,0,.708,2.747.485,3.505l-.783,1.421-1.64-.568-.447-3.789.075-6.063Z" transform="translate(-548.526 -465.871)"/><path class="f" d="M582.619,599.7l3.206-1.074.373,5.368s.671,1.642.447,2.274c0,0,.149,1.074-.224,1.137a7.26,7.26,0,0,1-1.491.126c-.075-.063-.075-.253-.075-.253s-.745.442-.82.947c0,0-3.131.821-3.206.063s1.566-1.389,1.566-1.389l1.267-1.642Z" transform="translate(-534.68 -550.328)"/><path class="j" d="M571.561,249.154a2.178,2.178,0,0,1-2.123,2.008,2.38,2.38,0,0,1-2.59-1.566,1.668,1.668,0,0,1-.058-.442,2.419,2.419,0,0,1,4.772,0Z" transform="translate(-522.131 -230.415)"/><path class="h" d="M544.336,306.367l1.851-.814.833.562s2.013-.063,2.758.695a7,7,0,0,1,1.156,2.684s-2.46-.442-2.162,1.326l-.447-1.01-.41.853-4.995,1.453-2.237-3.221s-1.491-.379-2.013.505c0,0,.112-3.189,1.566-3.284.978-.064,1.715-.063,1.715-.063l.82-.126.525-.158Z" transform="translate(-496.994 -283.587)"/><path class="f" d="M539.964,385.169s3.914,9.947,2.8,11.336c0,0-4.175,1.768-12.525-.632l3.392-11.147A13.5,13.5,0,0,1,539.964,385.169Z" transform="translate(-489.453 -355.473)"/><path class="h" d="M564.473,315.775l1.1-3.207c-1.321-1.217-.181-3.917-.181-3.917l-1.594-.289s-1.6,3.655-3.24,3.213-.746-3.284-.746-3.284l-1.491.126-.671,2.21.485,4.705A24.484,24.484,0,0,1,564.473,315.775Z" transform="translate(-513.962 -286.08)"/><path class="j" d="M483.566,287.07l.522-6,.149-3.6-1.64.253v3.347l-.336,6.094" transform="translate(-431.117 -252.542)"/><path class="g" d="M619.661,445.468s-2.162,3.41-.075,3.158,1.379-3.252,1.379-3.252" transform="translate(-568.517 -410.846)"/><path class="h" d="M633.4,316.671s-.265-3.243-2.481-3.232v3.751S632.578,316.355,633.4,316.671Z" transform="translate(-579.458 -290.764)"/><path class="g" d="M595.968,266.038a.061.061,0,0,1-.057-.034.047.047,0,0,1,.019-.057l1.217-.825a.068.068,0,0,1,.086.008.046.046,0,0,1-.009.072l-1.217.825A.068.068,0,0,1,595.968,266.038Z" transform="translate(-548.161 -246.778)"/><path class="g" d="M568.734,274.049c-.027.028-.054.056-.082.081a2.777,2.777,0,0,1-2.049-.032,2.114,2.114,0,0,1-1.264-1.366l1.153-.18,2.242.18C568.221,273.263,568.283,273.446,568.734,274.049Z" transform="translate(-520.835 -253.552)"/><path class="f" d="M548.192,235.282a1.948,1.948,0,0,0-1.518,1.5,2.033,2.033,0,0,0-.024.665,1.716,1.716,0,0,1-.656,1.4,14.228,14.228,0,0,0-1.17,1.273h0l1.288.291.576-1.808a8.6,8.6,0,0,1,1.276-2.484l.012-.016a2.031,2.031,0,0,0,1.575,1.1l-.354-.394a15.834,15.834,0,0,0,2.1.857.455.455,0,0,1,.342.326.392.392,0,0,1-.181.409l-.016.011c-.559.36-1.7,1.217-1.248,2.047s-.075.981-.075.981l.968-.312.443-.161-.045.278,2.164.038s.585,0-.454-1.325a1.074,1.074,0,0,1-.045-.874,1.76,1.76,0,0,0,.24-.922C553.325,236.832,552.662,234.121,548.192,235.282Z" transform="translate(-502.495 -219.372)"/><path class="f" d="M220.435,516.9s0,8.576-2.324,10.826c0,0-.5,1.125-.664,1.547a5.428,5.428,0,0,1-.332.7v.562s-4.481-.422-4.979-1.406l.83-.844s.166-.141,0-.562.332-.422.332-.422l1.162-2.249-.166-9.279.83-12.794,7.137-.281Z" transform="translate(-205.09 -463.026)"/><path class="f" d="M162.206,797.477s1.162,2.952,0,3.093-11.286.281-11.12-.843,3.485-.984,3.485-.984l3.485-1.828Z" transform="translate(-150.512 -730.805)"/><path class="f" d="M252.255,505.833a5.553,5.553,0,0,1-1,3.8c-1.328,1.968-.5,8.576-.5,8.576l11.784,8.717s-2.324,3.374-3.153,3.234-13.941-9.139-13.941-9.139L240.306,506.4Z" transform="translate(-230.272 -465.874)"/><path class="f" d="M414.635,736.429s3.566.749,3.084,1.656-5.761,8.225-6.794,7.5.885-3.021.885-3.021l.043-3.472Z" transform="translate(-382.523 -675.754)"/><path class="k" d="M263.588,181.994a2.927,2.927,0,0,1-.851,2.034,4.334,4.334,0,0,1-4.686.852,3.392,3.392,0,0,1-1.987-2.113,2.724,2.724,0,0,1-.111-.773,3.87,3.87,0,0,1,7.635,0Z" transform="translate(-244.26 -168.185)"/><path class="k" d="M285.114,227.453l-.169,4.161-3.212,1.075s-.315-4.261-.76-4.5S285.114,227.453,285.114,227.453Z" transform="translate(-266.599 -212.504)"/><path class="h" d="M234.275,254.363s4.481-3.8,5.643-3.655,1.162.562,1.162.844-.332.422,0,.562.664,0,.664.422,2.987,4.64,1.992,9.279-2.158,6.889-1.66,9.42.166,3.093.166,3.093-12.447.844-12.613-.141.5-.422-.332-1.125-.5-.7-.5-1.125S232.45,254.363,234.275,254.363Z" transform="translate(-219.926 -233.666)"/><path class="g" d="M269.085,491.449s-1.992,4.077-3.485,3.093.664-4.358.664-4.358Z" transform="translate(-252.412 -451.631)"/><path class="h" d="M276.939,294.305s3.9.378,2.448,6.445-7.095,13.1-7.095,13.1l-3.817-1.547,4.979-8.295-1.162-5.2S271.629,293.883,276.939,294.305Z" transform="translate(-255.454 -273.327)"/><path class="i" d="M124.351,342.279l-5.477,7.733.5.422Z" transform="translate(-106.267 -311.529)"/><path class="i" d="M160.826,382.389l-4.393,6.1h1.494Z" transform="translate(-139.843 -348.036)"/><path class="i" d="M0,0,.274.013.855,10.632l-.274-.013Z" transform="translate(10.839 45.506) rotate(-20.877)"/><ellipse class="l" cx="0.236" cy="0.2" rx="0.236" ry="0.2" transform="translate(14.137 21.069)"/><line class="m" x1="2.007" y2="5.5" transform="translate(12.366 21.269)"/><path class="l" d="M261.3,302.388a.118.118,0,0,0,.113-.07l2.007-5.5a.1.1,0,0,0-.078-.125.123.123,0,0,0-.148.066l-2.007,5.5a.088.088,0,0,0,.018.089.126.126,0,0,0,.095.041Z" transform="translate(-248.933 -275.518)"/><path class="g" d="M258.152,220.564l-.954.769a4.354,4.354,0,0,1-2.2-2.472l1.252-.444C256.332,219.359,257.123,219.987,258.152,220.564Z" transform="translate(-243.407 -204.279)"/><path class="g" d="M267.6,218.819h-.011l-2.218-.268a.07.07,0,0,1-.067-.076.078.078,0,0,1,.09-.057l2.218.269a.071.071,0,0,1,.068.071A.075.075,0,0,1,267.6,218.819Z" transform="translate(-252.621 -204.279)"/><path class="g" d="M283.316,229.733a.083.083,0,0,1-.068-.033.058.058,0,0,1,0-.067l.735-1.108a.087.087,0,0,1,.108-.026.062.062,0,0,1,.03.091l-.735,1.108A.082.082,0,0,1,283.316,229.733Z" transform="translate(-268.65 -213.448)"/><path class="f" d="M261.918,168.682a6.258,6.258,0,0,0-1-.253,2.212,2.212,0,0,1-1.742-2.491,1.089,1.089,0,0,0,.063-.411c-.045-.307-.416-.505-.771-.576a8.836,8.836,0,0,1-1.074-.173,1.42,1.42,0,0,1-.949-1.105,2,2,0,0,1,.36-1.376l.128.313a1.171,1.171,0,0,0,.42-.532.85.85,0,0,1,.659.449c.206.1.236-.32.464-.383a.468.468,0,0,1,.284.059,2.683,2.683,0,0,0,1.485-.074,6.573,6.573,0,0,1,2.595,0,3.332,3.332,0,0,1,1.534.668,3.048,3.048,0,0,1,.717,1.044,5.207,5.207,0,0,1,.579,2.922,3.868,3.868,0,0,1-1.151,2.191c-.328.321-1.4,1.439-1.988,1.248C261.79,169.962,262.788,169.072,261.918,168.682Z" transform="translate(-244.679 -152.931)"/></g></svg>