<svg xmlns="http://www.w3.org/2000/svg" width="772.847" height="473" viewBox="0 0 772.847 473"><defs><style>.a{fill:#ccc;}.b{fill:#e6e6e6;}.c{fill:#fff;}.d{fill:#3f3d56;}.e{fill:#2f2e41;}.f{fill:#6c63ff;}.g{opacity:0.2;}.h{fill:#f2f2f2;}</style></defs><g transform="translate(2.558 0)"><path class="a" d="M904.18,719.169H252.848a21.589,21.589,0,0,1-21.839-21.329h0q354.162-40.2,695.011,0h0A21.589,21.589,0,0,1,904.18,719.169Z" transform="translate(-169.656 -246.169)"/><path class="b" d="M926.016,626.818l-695.008-1.255L311.557,493.2l.385-.627V200.855c0-14.894,12.362-26.965,27.61-26.962h474.07c15.25,0,27.61,12.073,27.608,26.965V494.579Z" transform="translate(-169.656 -173.893)"/><path class="c" d="M352.787,195.864a8.9,8.9,0,0,0-8.993,8.782V470.631a8.9,8.9,0,0,0,8.993,8.782H831.973a8.9,8.9,0,0,0,8.993-8.782V204.646a8.9,8.9,0,0,0-8.993-8.782Z" transform="translate(-183.522 -177.044)"/><path class="a" d="M353.62,567.913a3.871,3.871,0,0,0-3.5,2.191L325.3,622.8a3.688,3.688,0,0,0,.256,3.6,3.877,3.877,0,0,0,3.245,1.734H850.745a3.875,3.875,0,0,0,3.278-1.785,3.687,3.687,0,0,0,.168-3.662l-26.978-52.695a3.845,3.845,0,0,0-3.446-2.08Z" transform="translate(-181.204 -230.415)"/><ellipse class="c" cx="5.781" cy="5.646" rx="5.781" ry="5.646" transform="translate(401.15 3.137)"/><path class="a" d="M565.121,649.94a3.846,3.846,0,0,0-3.721,2.785l-6.226,22.583a3.694,3.694,0,0,0,.662,3.268,3.886,3.886,0,0,0,3.059,1.474H677.3a3.882,3.882,0,0,0,3.139-1.581,3.69,3.69,0,0,0,.5-3.414l-8-22.584a3.851,3.851,0,0,0-3.642-2.533Z" transform="translate(-209.493 -242.181)"/><path class="a" d="M691.842,366.922v5.019H162.169l.4-.628v-4.392Z" transform="translate(-20.267 -52.635)"/><path class="a" d="M851.883,554.237a.937.937,0,0,0-.906.678l-1.516,5.5a.9.9,0,0,0,.161.8.946.946,0,0,0,.745.359H879.2a.945.945,0,0,0,.765-.385.9.9,0,0,0,.122-.831l-1.949-5.5a.938.938,0,0,0-.887-.617Z" transform="translate(-245.686 -228.453)"/><path class="a" d="M803.883,554.237a.937.937,0,0,0-.906.678l-1.516,5.5a.9.9,0,0,0,.161.8.947.947,0,0,0,.745.359H831.2a.946.946,0,0,0,.765-.385.9.9,0,0,0,.122-.831l-1.949-5.5a.938.938,0,0,0-.887-.617Z" transform="translate(-239.785 -228.453)"/><path class="d" d="M656.5,545.63h2.26l-4.52-294.986h-2.26l.09,5.885H601.426l.09-5.885h-2.26L594.737,545.63H597l.293-19.126h58.92Zm-3.257-212.6H600.255l.552-36.046h51.887Zm.034,2.207.552,36.046H599.668l.552-36.046Zm.586,38.253.552,36.046H599.082l.552-36.046Zm.586,38.253L655,447.792H598.5l.552-36.046ZM655.038,450l.552,36.046H597.91L598.462,450Zm-2.93-191.263.552,36.046H600.84l.552-36.046ZM597.324,524.3l.552-36.046h57.748l.552,36.046Z" transform="translate(-214.373 -184.903)"/><ellipse class="e" cx="36.847" cy="35.986" rx="36.847" ry="35.986" transform="translate(364.335 95.373)"/><path class="e" d="M0,0,11.186.046l.082,19.6L.082,19.6Z" transform="translate(411.842 158.178) rotate(-10.261)"/><path class="e" d="M0,0,11.186.046l.082,19.6L.082,19.6Z" transform="translate(389.812 162.073) rotate(-10.261)"/><path class="e" d="M9.237.108c5.1.059,9.255,1.652,9.278,3.558s-4.1,3.4-9.2,3.343S.063,5.356.04,3.451,4.136.048,9.237.108Z" transform="matrix(0.763, -0.646, 0.646, 0.763, 387.592, 186.075)"/><path class="e" d="M9.237.108c5.1.059,9.255,1.652,9.278,3.558s-4.1,3.4-9.2,3.343S.063,5.356.04,3.451,4.136.048,9.237.108Z" transform="matrix(0.763, -0.646, 0.646, 0.763, 409.163, 182.261)"/><ellipse class="c" cx="12.593" cy="12.299" rx="12.593" ry="12.299" transform="translate(386.009 110.257)"/><ellipse class="d" cx="4.198" cy="4.1" rx="4.198" ry="4.1" transform="translate(389.229 114.048)"/><path class="f" d="M643.97,277.32c.554-13.322-11.2-24.607-26.26-25.2S590,261.834,589.444,275.157s9.912,16.349,24.969,16.947S643.415,290.643,643.97,277.32Z" transform="translate(-213.72 -185.11)"/><path class="e" d="M5.655.029C8.779.046,11.353,8.3,11.4,18.461S8.966,36.85,5.843,36.834.146,28.565.094,18.4,2.532.013,5.655.029Z" transform="matrix(0.223, -0.975, 0.975, 0.223, 347.907, 126.288)"/><path class="e" d="M5.655.029C8.779.046,11.353,8.3,11.4,18.461S8.966,36.85,5.843,36.834.146,28.565.094,18.4,2.532.013,5.655.029Z" transform="matrix(0.223, -0.975, 0.975, 0.223, 420.237, 138.036)"/><path class="c" d="M627.68,343.091a8.216,8.216,0,0,1-6.756,9.535,8.383,8.383,0,0,1-9.763-6.6l0-.016c-.826-4.456,2.7-6.033,7.264-6.839S626.854,338.635,627.68,343.091Z" transform="translate(-216.377 -197.551)"/><path class="e" d="M18.5.147C28.719.229,37.023,2.941,37.048,6.206s-8.237,5.845-18.455,5.764S.072,9.176.046,5.911,8.283.066,18.5.147Z" transform="matrix(0.357, -0.934, 0.934, 0.357, 258.562, 266.676)"/><path class="e" d="M36.912.14C57.3.217,73.887,17.18,73.964,38.029S57.577,75.716,37.191,75.639.217,58.6.14,37.75,16.526.063,36.912.14Z" transform="translate(192.596 309.871) rotate(-80.783)"/><rect class="e" width="11.475" height="20.079" transform="translate(218.718 308.32)"/><rect class="e" width="11.475" height="20.079" transform="translate(241.669 308.32)"/><ellipse class="e" cx="9.563" cy="3.502" rx="9.563" ry="3.502" transform="translate(218.718 325.131)"/><ellipse class="e" cx="9.563" cy="3.502" rx="9.563" ry="3.502" transform="translate(241.669 324.664)"/><path class="f" d="M388.2,454.833c-3.05-13.34,6.7-26.819,21.776-30.107s29.771,4.861,32.821,18.2-6.942,18.26-22.018,21.547S391.253,468.173,388.2,454.833Z" transform="translate(-188.913 -209.77)"/><path class="e" d="M5.816.054c3.212.03,5.892,8.473,5.987,18.859S9.37,37.694,6.158,37.664.265,29.191.171,18.805,2.6.024,5.816.054Z" transform="translate(173.783 259.58) rotate(-64.626)"/><ellipse class="e" cx="37.772" cy="36.889" rx="37.772" ry="36.889" transform="translate(34.607 279.832)"/><rect class="e" width="11.475" height="20.079" transform="translate(55.167 345.672)"/><rect class="e" width="11.475" height="20.079" transform="translate(78.117 345.672)"/><ellipse class="e" cx="9.563" cy="3.502" rx="9.563" ry="3.502" transform="translate(55.167 362.482)"/><ellipse class="e" cx="9.563" cy="3.502" rx="9.563" ry="3.502" transform="translate(78.117 362.016)"/><ellipse class="c" cx="12.91" cy="12.608" rx="12.91" ry="12.608" transform="translate(60.426 294.774)"/><ellipse class="d" cx="4.303" cy="4.203" rx="4.303" ry="4.203" transform="translate(69.032 303.179)"/><path class="b" d="M201.726,498.44c-3.05-13.34,6.7-26.819,21.776-30.107s29.771,4.861,32.821,18.2-6.942,18.26-22.018,21.547S204.775,511.78,201.726,498.44Z" transform="translate(-165.987 -216.025)"/><path class="e" d="M18.5.147C28.719.229,37.023,2.941,37.048,6.206s-8.237,5.845-18.455,5.764S.072,9.176.046,5.911,8.283.066,18.5.147Z" transform="matrix(0.357, -0.934, 0.934, 0.357, 82.101, 198.028)"/><path class="e" d="M36.912.14C57.3.217,73.887,17.18,73.964,38.029S57.577,75.716,37.191,75.639.217,58.6.14,37.75,16.526.063,36.912.14Z" transform="translate(16.135 241.226) rotate(-80.783)"/><rect class="e" width="11.475" height="20.079" transform="translate(42.257 239.673)"/><rect class="e" width="11.475" height="20.079" transform="translate(65.207 239.673)"/><ellipse class="e" cx="9.563" cy="3.502" rx="9.563" ry="3.502" transform="translate(42.257 256.484)"/><ellipse class="e" cx="9.563" cy="3.502" rx="9.563" ry="3.502" transform="translate(65.207 256.017)"/><ellipse class="c" cx="12.91" cy="12.608" rx="12.91" ry="12.608" transform="translate(47.516 188.776)"/><ellipse class="d" cx="4.303" cy="4.203" rx="4.303" ry="4.203" transform="translate(56.123 197.181)"/><path class="f" d="M187.007,374.69c-3.05-13.34,6.7-26.819,21.776-30.107s29.771,4.861,32.821,18.2-6.942,18.26-22.018,21.547S190.056,388.03,187.007,374.69Z" transform="translate(-164.177 -198.274)"/><path class="e" d="M5.816.054c3.212.03,5.892,8.473,5.987,18.859S9.37,37.694,6.158,37.664.265,29.191.171,18.805,2.6.024,5.816.054Z" transform="translate(-2.679 190.933) rotate(-64.626)"/><path class="c" d="M207.707,434.692c0,3.61,9.519,10.74,20.082,10.74s20.466-10.165,20.466-13.775-9.9.7-20.466.7S207.707,431.082,207.707,434.692Z" transform="translate(-166.791 -210.662)"/><path class="f" d="M270.835,255.461a2.6,2.6,0,0,0-2.631,2.57V364.243a2.6,2.6,0,0,0,2.631,2.57H522.551a2.6,2.6,0,0,0,2.631-2.57V258.031a2.6,2.6,0,0,0-2.631-2.57Z" transform="translate(-174.229 -185.594)"/><ellipse class="c" cx="25.541" cy="24.944" rx="25.541" ry="24.944" transform="translate(139.032 100.6)"/><path class="c" d="M414,316.587a2.917,2.917,0,1,0,0,5.833h80.642a2.918,2.918,0,1,0,.1-5.833H414Z" transform="translate(-191.786 -194.362)"/><path class="c" d="M414,296.86a2.917,2.917,0,1,0,0,5.833h40.271a2.918,2.918,0,1,0,.1-5.833H414Z" transform="translate(-191.786 -191.532)"/><path class="c" d="M414,337.253a2.917,2.917,0,1,0,0,5.833h80.642a2.918,2.918,0,1,0,.1-5.833H414Z" transform="translate(-191.786 -197.327)"/><path class="e" d="M5.911.046c3.265.026,5.977,8.329,6.059,18.547s-2.5,18.48-5.764,18.455S.229,28.719.147,18.5,2.647.021,5.911.046Z" transform="matrix(0.934, -0.357, 0.357, 0.934, 594.839, 303.996)"/><path class="e" d="M37.75.14C58.6.217,75.562,16.805,75.639,37.191S58.878,74.041,38.029,73.964.217,57.3.14,36.912,16.9.063,37.75.14Z" transform="translate(590.808 324.224) rotate(-9.217)"/><path class="e" d="M741.427,447.932H729.952l2.245,24.046,9.249-2.454Z" transform="translate(-90.072 -64.255)"/><path class="e" d="M712.9,448.005H701.428l2.245,24.046,8.832-2.517Z" transform="translate(-86.565 -64.266)"/><path class="e" d="M9.561.016c5.281.009,9.564,1.584,9.568,3.519s-4.275,3.5-9.555,3.486S.009,5.437.006,3.5,4.281.007,9.561.016Z" transform="translate(606.725 402.61) rotate(-4.182)"/><ellipse class="c" cx="12.91" cy="12.608" rx="12.91" ry="12.608" transform="translate(620.277 332.778)"/><ellipse class="d" cx="4.303" cy="4.203" rx="4.303" ry="4.203" transform="translate(628.883 341.184)"/><path class="e" d="M18.6.211C28.873.328,37.231,3.055,37.267,6.3s-8.262,5.786-18.534,5.669S.1,9.127.066,5.88,8.328.094,18.6.211Z" transform="translate(658.061 340.441) rotate(-53.55)"/><path class="c" d="M863.077,608.749c0-2.976,7.845-8.852,16.551-8.852S896.5,608.275,896.5,611.25s-8.162-.577-16.868-.577S863.077,611.724,863.077,608.749Z" transform="translate(-247.364 -235.003)"/><path class="f" d="M975.134,518.324,768.369,490.331a6.029,6.029,0,0,1-5.238-6.762L786.374,319.82A6.123,6.123,0,0,1,793.3,314.7L1000.061,342.7a6.029,6.029,0,0,1,5.238,6.762L982.054,513.208a6.123,6.123,0,0,1-6.92,5.115Z" transform="translate(-235.069 -194.084)"/><path class="c" d="M905.551,477.126,799.993,462.836a2.218,2.218,0,0,1-.39-.084l61.912-77.695a3.569,3.569,0,0,1,3.288-1.321,3.515,3.515,0,0,1,2.8,2.145l25.46,61.211,1.22,2.929Z" transform="translate(-239.56 -203.99)"/><path class="g" d="M754.67,313.849l-36.04-4.879,21.255-22.7,1.53-1.635.765-.818,1.22,2.929Z" transform="translate(-88.68 -40.713)"/><path class="c" d="M974.617,490.749l-91.3-12.361,21.254-22.7,1.53-1.636,27.7-29.585a4.784,4.784,0,0,1,6.982.533,4.117,4.117,0,0,1,.274.449Z" transform="translate(-249.852 -209.655)"/><ellipse class="c" cx="15.787" cy="15.418" rx="15.787" ry="15.418" transform="translate(651.487 176.607)"/><path class="d" d="M0,0,19.287-.061l-.061,18.853-19.287.061Z" transform="translate(561.756 133.209) rotate(7.893)"/><path class="h" d="M918.136,542.809c3.05-13.34-6.7-26.819-21.776-30.107s-29.771,4.861-32.821,18.2,6.942,18.26,22.018,21.547S915.086,556.149,918.136,542.809Z" transform="translate(-247.353 -222.39)"/><path class="e" d="M9.561.016c5.281.009,9.564,1.584,9.568,3.519s-4.275,3.5-9.555,3.486S.009,5.437.006,3.5,4.281.007,9.561.016Z" transform="translate(631.889 402.551) rotate(-4.182)"/></g></svg>