<svg xmlns="http://www.w3.org/2000/svg" width="90" height="90" viewBox="0 0 90 90"><defs><style>.a{fill:none;}.b{fill:#fff;}</style></defs><rect class="a" width="90" height="90"/><g transform="translate(3.75 5.625)"><path class="b" d="M83.5,40.875,74.35,30.412l1.275-13.837L62.087,13.5,55,1.5,42.25,6.975,29.5,1.5,22.413,13.462,8.875,16.5,10.15,30.375,1,40.875l9.15,10.463L8.875,65.213l13.538,3.075L29.5,80.25l12.75-5.512L55,80.213,62.087,68.25l13.538-3.075L74.35,51.338Zm-48.412,17.7L20.837,44.287l5.55-5.55,8.7,8.737L57.025,25.463l5.55,5.55Z" transform="translate(-1 -1.5)"/></g></svg>