<svg xmlns="http://www.w3.org/2000/svg" xmlns:xlink="http://www.w3.org/1999/xlink" width="345" height="285" viewBox="0 0 345 285"><defs><style>.a,.c{fill:#3a3768;}.a,.b,.f{opacity:0.1;}.d{fill:url(#a);}.e{fill:#ecb4b6;}.g{fill:#c17174;}.ab,.h{fill:#fff;}.h{opacity:0.25;}.i{fill:#9f9eff;}.j{fill:#5e5a6b;}.k{fill:#464353;}.l{fill:url(#b);}.m{fill:url(#c);}.n{fill:url(#d);}.o{fill:url(#e);}.p{fill:#3e373a;}.q{fill:#e7c7ca;}.r{fill:#be6f72;}.s{fill:#4b4b5b;}.t{fill:url(#f);}.u{fill:#7e656a;}.v{fill:#ffb9b9;}.w{opacity:0.05;}.x{fill:#8189a6;}.y{fill:#c3c7d9;}.z{fill:#cdd0db;}.aa{fill:#9da7c0;}.ab{opacity:0.3;}.ac{fill:none;stroke:#565987;stroke-miterlimit:10;}.ad{fill:#ffd037;}.ae{fill:#a8a8a8;}.af{opacity:0.2;}</style><linearGradient id="a" x1="0.5" y1="1" x2="0.5" gradientUnits="objectBoundingBox"><stop offset="0" stop-color="gray" stop-opacity="0.251"/><stop offset="0.54" stop-color="gray" stop-opacity="0.122"/><stop offset="1" stop-color="gray" stop-opacity="0.102"/></linearGradient><linearGradient id="b" x1="0.505" y1="1" x2="0.505" y2="0" xlink:href="#a"/><linearGradient id="c" x1="0.476" y1="1" x2="0.476" y2="-0.002" xlink:href="#a"/><linearGradient id="d" x1="0.5" y1="1" x2="0.5" y2="0" xlink:href="#a"/><linearGradient id="e" x1="0.5" y1="1" x2="0.5" y2="0" xlink:href="#a"/><linearGradient id="f" x1="0.5" y1="1.001" x2="0.5" y2="0" xlink:href="#a"/></defs><g transform="translate(-0.016 -0.017)"><path class="a" d="M273.543,73.068c-14.8,13.476-34,12.6-50.83,5.591S190.43,59.167,174.036,50.294a130.143,130.143,0,0,0-42.765-14.5c-20.894-3.089-44.227.686-58.784,22.462-16.212,24.26-14.966,68.017,2.561,90.273,8.92,11.327,20.6,16.888,30.784,25.743s19.614,23.533,18.746,40.6c-.8,15.789-10.14,27.933-19.8,35.539C97.309,256.3,88.113,262.724,87.214,274.9c-.871,11.787,6.862,21.02,14.246,26.272,24.088,17.135,53.772,16.97,77.777-.432,8.562-6.206,16.432-14.461,25.41-19.3,23.573-12.7,49.55.086,74.512,4.761a116.1,116.1,0,0,0,63.374-6c12.361-4.747,24.77-12.014,33.454-25.527,6.264-9.748,10.165-22.084,13.827-34.269q5.857-19.493,11.263-39.257c2.16-7.895,4.289-15.975,4.849-24.436,1.011-15.336-3.252-30.494-9.058-43.438-13.8-30.724-37.013-52.331-62.158-57.823s-51.746,5.234-71.248,28.692" transform="translate(-61.06 -34.84)"/><g class="b" transform="translate(51.327 51.604)"><path class="c" d="M276.876,268.427s-8.741,2.176-11.161,7.551l-2.653-1.006v3.5l-5.54-1.579s3.745,2.176,1.639,5.022-8.418,7.943-8.418,7.943-4.292-4.27,1.485-12.556S270.4,263.069,276.876,268.427Z" transform="translate(-240.305 -238.499)"/><path class="c" d="M257.337,243.23s-15.079-22.85-35.947-4.184c0,0,6.523.343,8.242,1.589,0,0,.077-4.771,1.559-3.515l.861,3.683,4.836.752s1.127-4.266,2.477-3.515l1.818,3.683,3.9.251s.781-3.851,1.639-3.264,1.562,2.931,1.562,2.931S255.154,241.222,257.337,243.23Z" transform="translate(-221.39 -215.729)"/><path class="c" d="M284.2,212.65l-3.591-9.36s.157-3.264,1.171-3.432l-1.952.837-1.639-2.008,1.171-3.264s-2.343,2.427-3.124,2.427-5.617-3.264-5.617-3.264l2.42-3.089s-3.124,3.6-5.544,2.43-10.93-5.3-8.274-6.137,7.963-5.186,16.391-.5S290.6,203.945,284.2,212.65Z" transform="translate(-246.767 -185.148)"/><path class="c" d="M343.2,221.18l5.934-11.519,2.186.638-.39-3.515,4.6-3.35,1.015,1.757v-3.669l5.23-2.09,1.328,1.507s-.781-3.264,3.2-2.746,5.544-.051,5.544-.051-3.751,5.712-6.014,7.764l-2.964-1.047,1.28,3.014-5.492,3.432s-3.277-2.279-3.434-1.641l1.325,2.911S342.888,219.591,343.2,221.18Z" transform="translate(-304.208 -193.679)"/><path class="c" d="M349.8,250.22s3.2-6.275,8.117-5.773l1.482,2.008s-1.325-3.347,3.982-4.521a113.079,113.079,0,0,1,12.956-1.744l1.405,2.849,1.639-2.849,5.854,2.849s-1.328,5-10.694,5.76l-1.482-2.427-.237,2.427-5.307,1.84s-1.325-3.014-1.872-2.595-.32,2.595-.32,2.595A29.326,29.326,0,0,1,349.8,250.22Z" transform="translate(-308.7 -221.297)"/><path class="c" d="M344.92,273.067s1.248,9.106,2.967,10.194a17.284,17.284,0,0,0,4.839,1.675l-5.073.669,2.561,4.352,4.763,2.344-3.591.752-.234,2.262,2.029,1-2.33,1.078s-1.559,6.278-3.822,9.292c0,0,6.008-1.589,7.96-5.022a32.877,32.877,0,0,0,2.881-8.791s.32-7.867-1.015-9.954S346.4,272.5,344.92,273.067Z" transform="translate(-305.382 -242.872)"/><path class="c" d="M271.627,244.82l-1.015.669-1.872,4.184h3.278Z" transform="translate(-234.041 -212.379)"/><path class="c" d="M331.051,296.24l-3.2.752V299.5s1.872.752,1.872,1.421Z" transform="translate(-293.775 -258.108)"/><path class="c" d="M262.2,272.62l-.781,3.6,2.81,1.418v-3.261Z" transform="translate(-229.064 -230.637)"/><path class="c" d="M319.475,320.5l-1.015,5.986s2.849-1.548,3.358-1.129l.272-3.182S320.233,320.036,319.475,320.5Z" transform="translate(-287.391 -273.996)"/><path class="c" d="M317.6,338.137l.272,1.967,3.281,1.043v-3.6l-.823-1.03S317.48,337.251,317.6,338.137Z" transform="translate(-286.805 -284.562)"/><path class="c" d="M316.15,350c.038.251,0,5.19,0,5.19h4.161l-.154-3.978Z" transform="translate(-285.82 -293.416)"/><path class="c" d="M255.08,332l.464,6.027,3.908-2.554-.2-2.89Z" transform="translate(-224.753 -269.635)"/><path class="c" d="M256.53,346.5l.278,4.143,4.759-.292-.663-6.532Z" transform="translate(-225.739 -277.398)"/><path class="c" d="M257.4,365.908l.781,3.892,4.721-.879-.743-3.642Z" transform="translate(-226.331 -291.492)"/><path class="c" d="M259.23,381.155l.762,3.055,5.246.838-.858-4.648Z" transform="translate(-227.575 -301.422)"/><path class="c" d="M323,429.677l2.148,7.785s2.538-4.895,4.292-4.6l-.858-2.931S323.422,429.049,323,429.677Z" transform="translate(-290.478 -345.595)"/><path class="c" d="M330.66,446.09l1.6,4.562s5.121-2.059,5.854-1.507l-3.2-8.025S331.947,445.922,330.66,446.09Z" transform="translate(-295.686 -353.259)"/><path class="c" d="M276.79,433.741l2.3,4.939,4.878-3.264-2.029-3.556Z" transform="translate(-239.515 -335.219)"/><path class="c" d="M285.93,447.887l1.911,3.223h7.768l-4.839-6.57Z" transform="translate(-245.729 -343.547)"/><path class="c" d="M292.88,466.85l5.464,7.994,5.5-5.025-2.692-2.969Z" transform="translate(-250.455 -358.199)"/><path class="c" d="M317.45,478.49l-5.31,4.5,7.144,2.928,2.535-3.429Z" transform="translate(-263.55 -365.844)"/><path class="c" d="M487.48,330.25s6.741,1.675,8.607,5.808l2.045-.776v2.712l4.273-1.229s-2.881,1.678-1.28,3.872,6.5,6.13,6.5,6.13,3.31-3.288-1.143-9.679S492.476,326.117,487.48,330.25Z" transform="translate(-402.312 -279.408)"/><path class="c" d="M489,310.819s11.625-17.615,27.715-3.227c0,0-5.031.261-6.353,1.229,0,0-.061-3.68-1.2-2.712l-.663,2.839-3.732.58s-.867-3.288-1.92-2.708l-1.4,2.839-3.009.192s-.6-2.966-1.28-2.516-1.2,2.259-1.2,2.259S490.68,309.271,489,310.819Z" transform="translate(-403.346 -261.851)"/><path class="c" d="M481.2,287.261l2.769-7.225s-.118-2.516-.9-2.646l1.5.645,1.264-1.548-.9-2.516s1.805,1.871,2.407,1.871,4.334-2.516,4.334-2.516l-1.866-2.4s2.407,2.773,4.273,1.871,8.434-4.05,6.376-4.689-6.136-4-12.636-.388S476.266,280.551,481.2,287.261Z" transform="translate(-396.694 -238.293)"/><path class="c" d="M434.776,293.838l-4.574-8.88-1.684.491.3-2.708-3.534-2.567-.784,1.373V278.7l-4.03-1.613-1.024,1.164s.6-2.516-2.468-2.132a10.624,10.624,0,0,1-4.27-.038,43.106,43.106,0,0,0,4.631,6.007l2.289-.807-.989,2.324,4.238,2.646s2.525-1.757,2.647-1.267l-1.024,2.245S435.019,292.613,434.776,293.838Z" transform="translate(-351.474 -244.871)"/><path class="c" d="M418.541,316.184s-2.468-4.84-6.261-4.462l-1.143,1.548s1.024-2.581-3.069-3.484a87.923,87.923,0,0,0-9.986-1.345l-1.085,2.2-1.264-2.2-4.513,2.2s1.024,3.858,8.245,4.438l1.143-1.871.182,1.871,4.091,1.452s1.024-2.324,1.444-2,.24,2,.24,2A22.813,22.813,0,0,0,418.541,316.184Z" transform="translate(-336.862 -266.121)"/><path class="c" d="M459.067,333.829s-.96,7.019-2.289,7.86a13.268,13.268,0,0,1-3.729,1.291l3.911.515-1.988,3.357-3.671,1.805,2.769.58.182,1.744-1.565.772,1.805.841s1.2,4.84,2.948,7.163c0,0-4.635-1.225-6.139-3.872a25.453,25.453,0,0,1-2.224-6.776s-.24-6.069.781-7.682S457.925,333.39,459.067,333.829Z" transform="translate(-376.185 -282.781)"/><path class="c" d="M423.331,304.07l.784.515,1.444,3.23H423.03Z" transform="translate(-338.948 -251.292)"/><path class="c" d="M485.79,351.69l2.468.58V354.2s-1.443.58-1.443,1.1Z" transform="translate(-401.163 -294.526)"/><path class="c" d="M431.365,325.5l.6,2.777-2.167,1.092v-2.513Z" transform="translate(-343.551 -265.366)"/><path class="c" d="M494.006,370.395l.784,4.613s-2.2-1.195-2.589-.872l-.211-2.451S493.437,370.041,494.006,370.395Z" transform="translate(-405.379 -306.777)"/><path class="c" d="M495.577,383.97l-.208,1.517-2.529.807v-2.777l.64-.807S495.673,383.287,495.577,383.97Z" transform="translate(-405.957 -314.898)"/><path class="c" d="M495.68,393.15c-.029.192,0,4,0,4h-3.22l.122-3.065Z" transform="translate(-405.699 -321.755)"/><path class="c" d="M434.3,371.28l-.358,4.648-3.012-1.97.15-2.224Z" transform="translate(-344.319 -295.433)"/><path class="c" d="M432.086,382.466l-.214,3.192-3.671-.227.512-5.032Z" transform="translate(-342.463 -301.422)"/><path class="c" d="M430.661,397.424l-.6,3-3.639-.68.57-2.808Z" transform="translate(-341.253 -312.285)"/><path class="c" d="M428.415,409.18l-.586,2.355-4.049.649.663-3.583Z" transform="translate(-339.458 -319.943)"/><path class="c" d="M486.714,454.567l-1.655,6s-1.956-3.776-3.309-3.549l.663-2.259S486.381,454.083,486.714,454.567Z" transform="translate(-398.417 -361.977)"/><path class="c" d="M479.128,467.234l-1.235,3.518s-3.94-1.582-4.513-1.164l2.468-6.178S478.133,467.1,479.128,467.234Z" transform="translate(-392.726 -367.898)"/><path class="c" d="M412.964,449.722l-1.773,3.807-3.761-2.516L409,448.27Z" transform="translate(-328.341 -345.996)"/><path class="c" d="M401.821,460.628l-1.472,2.485H394.36l3.732-5.063Z" transform="translate(-319.454 -352.419)"/><path class="c" d="M394.356,475.25l-4.212,6.161-4.244-3.872,2.077-2.289Z" transform="translate(-313.702 -363.716)"/><path class="c" d="M377.52,484.22l4.091,3.47-5.505,2.259L374.15,487.3Z" transform="translate(-305.713 -369.607)"/><path class="c" d="M310.17,529.83s16.263-7.421,29.555-5.835a25.035,25.035,0,0,0,2.733.189c5.441.062,24.645.635,33.508,5.64Z" transform="translate(-281.754 -407.542)"/></g><path class="a" d="M35.688.094C55.364-.132,71.292,1.8,71.264,4.41s-16,4.908-35.677,5.134S-.018,7.838.01,5.229,16.012.32,35.688.094Z" transform="matrix(0.987, -0.161, 0.161, 0.987, 261.739, 225.169)"/><ellipse class="a" cx="36.312" cy="4.301" rx="36.312" ry="4.301" transform="translate(3.826 272.245)"/><ellipse class="a" cx="25.577" cy="3.786" rx="25.577" ry="3.786" transform="translate(145.953 184.457)"/><path class="d" d="M190.623,423.338v-.024l-.029-.021h0l-.173-.127.035.031a.549.549,0,0,0-.755.175l-.07.11h0l-3.889,6-.682,1.05c-2.052-.662-5.384,2.128-7.07,3.724l-.3.281c-.131-.323-.211-.525-.211-.525-.083.982-3.316,2.451-4.071,2.986a2.649,2.649,0,0,1-1.127.408c.106-3.734-2.583-7.661-2.583-7.661l-6.561-8.976a8.433,8.433,0,0,1,.672-4.761c.054-.117.109-.23.17-.343h.032a8.326,8.326,0,0,0-.413,2.344c.016.611.541,3.553,1.28,3.432a.391.391,0,0,0,.378-.2,5.073,5.073,0,0,0,.611-3.141,6.836,6.836,0,0,1-.106,1.013c.048-.961-.054-1.977-.054-2.7,0-.288,0-.573.019-.862h.08v0h.086a8.576,8.576,0,0,0,4.017-1.994,2.11,2.11,0,0,0,1.511-.759,1.664,1.664,0,0,1-.285,1.466,2.424,2.424,0,0,0,1.965-1.641,6.116,6.116,0,0,0,.25-2.746,20.4,20.4,0,0,1-.189-2.791,10.951,10.951,0,0,0,.077-1.517,3.172,3.172,0,0,0-.077-.463h.026a.583.583,0,0,0,.458-.189,2.374,2.374,0,0,0,.576-1.345,12.263,12.263,0,0,0,.339-3.2c-.019.326-.058.652-.1.978a4.533,4.533,0,0,0-.842-3.329,5.991,5.991,0,0,0-1.962-1.335,1.525,1.525,0,0,1-.64-.491,2.156,2.156,0,0,1-.2-.851c-.246-1.809-1.831-3.062-3.409-3.8-2.029-.944-4.481-1.352-6.417-.227a20.613,20.613,0,0,0-2.561,2.1c-1.082.879-2.33,1.5-3.486,2.265a7.171,7.171,0,0,0-2.807,3.069c-.848,2.059-.211,4.4-.106,6.628a11.131,11.131,0,0,1-3.857,9.268,3.551,3.551,0,0,0-.848.786,1.04,1.04,0,0,0-.07,1.122c.138.2.355.3.506.484a1.642,1.642,0,0,1,.125,1.414,9.005,9.005,0,0,1-2.24,4.067c.048.367.467.511.81.563a17.011,17.011,0,0,0,2.737.213h.394c-.042.113-.086.233-.131.343a12.143,12.143,0,0,0-.925,4.874c.336,2.083,1.344,11.595.839,13.259s.784,13.85.784,13.85.176.934.48,2.327c-.791,2-1.693,4.215-2.144,5.1-.909,1.785-.461,10.881,2.673,14.921,0,0,1.3,1.963.96,2.677a3.407,3.407,0,0,0,.058,1.96l.5,11.773a32.2,32.2,0,0,1-.234,3.594c-1.335,1.775-3.4,4.363-4.366,4.805-1.5.652-12.7,15.216-12.7,15.216s.09.175.262.463l-.32.388-2.148,2.671-.17.209a52.346,52.346,0,0,0-5.217-.769h-.211v-.117a7.434,7.434,0,0,0-2.24.065.708.708,0,0,0-.371.209c-.727.951-1.117,15.933-1.117,15.933s.775,7.5,3.2,7.915a1.324,1.324,0,0,0,.384.079.9.9,0,0,0,.134,0,3.286,3.286,0,0,0,2.881-1.926,3.354,3.354,0,0,0,.24-.687,5.911,5.911,0,0,1,.474-3.182c.755-1.843,2.157-5.053,2.157-5.053s2.561-2.883,2.1-4.287l.246-.378c.96-1.466,2.906-4.366,4.481-6.305l.32-.371a7.648,7.648,0,0,0,1.783.556,6.751,6.751,0,0,0,3.3-3.271,19.231,19.231,0,0,1,3.466-4.3l-.051.439-.054,14.324a9.113,9.113,0,0,0,1.645.971v.343a49.378,49.378,0,0,1-.346,6.11l-.048.316c-.2-.151-.371-.2-.48-.082-.493.532-.8,3.954-.829,5.526v.158c-.08,1.575-.915,3.858,1.6,3.975,1.882.086,9.993.22,14.336.285a9.213,9.213,0,0,0,6.4-2.434c1.38-1.267,2.215-2.773.32-3.882-.115-.065-.237-.13-.371-.2l-4.161-.687-7.109-3.892s-.042-2.355-.9-1.963a2.277,2.277,0,0,0-.72.309c-.042-.089-.086-.178-.128-.275a9.307,9.307,0,0,1-.877-3.968v-.381a6.513,6.513,0,0,0,.589-.649s-.054-5.348.506-6.36,2.3-11.224,2.3-11.224a5.063,5.063,0,0,1,1.175-3.034c1.12-1.129.727-4.4.727-4.4s1.568-.889,2.071-3.8,2.128-9.268,2.128-9.268,3.358-9.391,3.137-15.336a46.931,46.931,0,0,1,.336-9.038l.7-13.816v-.213c.278.23.467.412.467.412v-.148c.1.089.16.148.16.148s.358-6.268.237-8.753c1.959-.714,4.942-1.888,5.121-2.482.253-.892,3.614-3.7,3.614-3.7a.6.6,0,0,1-.2-.082c.106-.055.214-.113.32-.182,2.2-1.263,6.293-4.956,5.6-7.208l4.481-6.892a1.239,1.239,0,0,0-.1-1.486Z" transform="translate(-103.742 -268.507)"/><path class="e" d="M292.173,518.343a2.8,2.8,0,0,1-1.072.436c-1.4.045-2.561-4.019-2.561-4.019s.4-.432,1.031-1.03c1.876-1.788,5.809-5.094,7.653-3.244C299.3,512.549,294.583,516.946,292.173,518.343Z" transform="translate(-215.72 -346.854)"/><path class="e" d="M214.1,800.314l-5.163,5.99s-4.775.058-3.841-2.767a11,11,0,0,0,.4-1.877,49.566,49.566,0,0,0,.32-6.048c0-1.328-.019-2.255-.019-2.255s7.518-3.532,6.75.144a7.4,7.4,0,0,0-.154,1.4,9.888,9.888,0,0,0,1.693,5.43Z" transform="translate(-158.899 -531.986)"/><path class="f" d="M214.1,813.713l-5.163,5.99s-4.775.058-3.841-2.767a10.994,10.994,0,0,0,.4-1.878,11.633,11.633,0,0,1,1.661,2.231s3.294,1.03,4.2-2.059a5.242,5.242,0,0,1,1.92-3A9.007,9.007,0,0,0,214.1,813.713Z" transform="translate(-158.899 -545.384)"/><path class="g" d="M223.914,822.521a9,9,0,0,1-6.286,2.4c-4.257-.065-12.211-.2-14.057-.281-2.471-.113-1.652-2.375-1.572-3.937v-.154c.029-1.558.32-4.946.813-5.475s2.18,2.355,2.18,2.355,3.294,1.03,4.2-2.06,2.746-3.384,2.746-3.384c.835-.388.877,1.943.877,1.943l6.978,3.868,4.087.687c.134.065.253.13.365.2C226.087,819.775,225.268,821.265,223.914,822.521Z" transform="translate(-156.746 -545.196)"/><ellipse class="h" cx="0.301" cy="0.323" rx="0.301" ry="0.323" transform="translate(53.987 270.745)"/><ellipse class="h" cx="0.301" cy="0.323" rx="0.301" ry="0.323" transform="translate(56.813 272.245)"/><ellipse class="h" cx="0.301" cy="0.323" rx="0.301" ry="0.323" transform="translate(58.27 272.945)"/><ellipse class="h" cx="0.301" cy="0.323" rx="0.301" ry="0.323" transform="translate(61.288 274.188)"/><ellipse class="h" cx="0.301" cy="0.323" rx="0.301" ry="0.323" transform="translate(59.752 273.656)"/><path class="g" d="M223.914,835.4a9,9,0,0,1-6.286,2.4c-4.257-.065-12.211-.2-14.057-.281-2.471-.113-1.652-2.375-1.572-3.937l15.514,1.03s6.353-1.03,6.721-3.062C226.087,832.652,225.268,834.141,223.914,835.4Z" transform="translate(-156.746 -558.073)"/><path class="h" d="M223.914,835.4a9,9,0,0,1-6.286,2.4c-4.257-.065-12.211-.2-14.057-.281-2.471-.113-1.652-2.375-1.572-3.937l15.514,1.03s6.353-1.03,6.721-3.062C226.087,832.652,225.268,834.141,223.914,835.4Z" transform="translate(-156.746 -558.073)"/><path class="e" d="M157.769,765.326A10.917,10.917,0,0,0,156.214,767c-1.54,1.919-3.444,4.788-4.388,6.244-.365.563-.586.913-.586.913l-2.061-.323s-2.221-3.638-2.18-3.738,1.757-4,1.757-4l.669-.841,2.106-2.643.96-1.2S159.635,763.881,157.769,765.326Z" transform="translate(-119.481 -512.008)"/><path class="f" d="M151.825,780.591c-.365.563-.586.913-.586.913l-2.061-.323s-2.221-3.638-2.18-3.738,1.757-4,1.757-4l.669-.841.218.041h.522c-1.837,2.06.138,6.594.138,6.594S151.16,779.321,151.825,780.591Z" transform="translate(-119.481 -519.357)"/><path class="g" d="M135.648,784.038s-1.376,3.178-2.116,5a5.933,5.933,0,0,0-.467,3.148,3.316,3.316,0,0,1-3.044,2.591.915.915,0,0,1-.134,0c-2.5-.072-3.3-7.86-3.3-7.86s.384-14.835,1.1-15.789a.694.694,0,0,1,.362-.206,7.291,7.291,0,0,1,2.192-.045,50.646,50.646,0,0,1,5.172.772h.522c-1.84,2.059.134,6.59.134,6.59s.88.089,1.565,1.414S135.648,784.038,135.648,784.038Z" transform="translate(-105.605 -518.187)"/><ellipse class="h" cx="0.301" cy="0.323" rx="0.301" ry="0.323" transform="translate(26.717 261.12)"/><ellipse class="h" cx="0.301" cy="0.323" rx="0.301" ry="0.323" transform="translate(26.57 263.688)"/><path class="g" d="M132.191,792.7a3.226,3.226,0,0,1-2.81,1.905.872.872,0,0,1-.131,0c-2.5-.072-3.3-7.86-3.3-7.86s.384-14.835,1.1-15.789a.7.7,0,0,1,.362-.206,7.294,7.294,0,0,1,2.205-.062c-.042,2.664-.16,11.094,0,11.928S131.2,790.451,132.191,792.7Z" transform="translate(-105.17 -518.062)"/><path class="h" d="M132.191,792.7a3.226,3.226,0,0,1-2.81,1.905.872.872,0,0,1-.131,0c-2.5-.072-3.3-7.86-3.3-7.86s.384-14.835,1.1-15.789a.7.7,0,0,1,.362-.206,7.294,7.294,0,0,1,2.205-.062c-.042,2.664-.16,11.094,0,11.928S131.2,790.451,132.191,792.7Z" transform="translate(-105.17 -518.062)"/><path class="g" d="M129.25,794.835c-2.5-.072-3.3-7.86-3.3-7.86s.384-14.835,1.1-15.789a.694.694,0,0,1,.362-.206c.525.841.986,2.691.57,6.772-.781,7.726.16,8.21.16,8.21A74.788,74.788,0,0,1,129.25,794.835Z" transform="translate(-105.17 -518.293)"/><path class="f" d="M129.25,794.835c-2.5-.072-3.3-7.86-3.3-7.86s.384-14.835,1.1-15.789a.694.694,0,0,1,.362-.206c.525.841.986,2.691.57,6.772-.781,7.726.16,8.21.16,8.21A74.788,74.788,0,0,1,129.25,794.835Z" transform="translate(-105.17 -518.293)"/><path class="f" d="M292.173,525.593a2.8,2.8,0,0,1-1.072.436c-1.4.045-2.561-4.019-2.561-4.019s.4-.432,1.031-1.03C290.028,522.078,291.289,525.044,292.173,525.593Z" transform="translate(-215.72 -354.104)"/><path class="i" d="M268.96,523.652a3.331,3.331,0,0,0,1.892-.443c.739-.529,3.911-1.987,3.994-2.959,0,0,1.892,4.946,2.964,5.121,0,0-3.294,2.78-3.54,3.666s-6.67,3.045-6.67,3.045Z" transform="translate(-201.482 -353.625)"/><path class="f" d="M268.96,523.652a3.331,3.331,0,0,0,1.892-.443c.739-.529,3.911-1.987,3.994-2.959,0,0,1.892,4.946,2.964,5.121,0,0-3.294,2.78-3.54,3.666s-6.67,3.045-6.67,3.045Z" transform="translate(-201.482 -353.625)"/><path class="f" d="M167.371,765.326A10.915,10.915,0,0,0,165.815,767a11.448,11.448,0,0,1-4.7-4.39l.96-1.2S169.237,763.881,167.371,765.326Z" transform="translate(-129.083 -512.008)"/><path class="j" d="M179.226,699.85s-4.026,5.767-5.5,6.415-12.448,15.068-12.448,15.068,2.359,4.651,6.7,5.416a6.576,6.576,0,0,0,3.239-3.237c.88-2.234,7.794-8.536,7.794-8.536Z" transform="translate(-129.192 -471.578)"/><path class="f" d="M179.226,699.85s-4.026,5.767-5.5,6.415-12.448,15.068-12.448,15.068,2.359,4.651,6.7,5.416a6.576,6.576,0,0,0,3.239-3.237c.88-2.234,7.794-8.536,7.794-8.536Z" transform="translate(-129.192 -471.578)"/><path class="f" d="M179.24,756.095a16.38,16.38,0,0,0,3.665,0C185.084,755.875,183.439,757.286,179.24,756.095Z" transform="translate(-141.403 -508.502)"/><path class="f" d="M176.15,760.51s2.881,1.768,3.994.882S179.072,762.243,176.15,760.51Z" transform="translate(-139.303 -511.417)"/><path class="f" d="M214.33,793.451a7.4,7.4,0,0,0-.154,1.4c-2.224,2.169-4.9,1.5-6.577.711,0-1.328-.019-2.255-.019-2.255S215.1,789.775,214.33,793.451Z" transform="translate(-160.673 -531.953)"/><path class="j" d="M222.621,572.04l-.08,1.63-.669,13.675a46.091,46.091,0,0,0-.32,8.948c.23,5.887-3.076,15.185-3.076,15.185s-1.6,6.3-2.087,9.182-2.029,3.776-2.029,3.776.384,3.237-.714,4.356a5.051,5.051,0,0,0-1.152,3s-1.7,10.122-2.24,11.125-.544,6.292-.544,6.292c-3.553,4.541-8.767.422-8.767.422L201,635.448s1.482-13.067,2.58-14.893,1.1-6.827,1.1-6.827l-.49-11.67a3.363,3.363,0,0,1-.054-1.943c.336-.7-.941-2.65-.941-2.65-3.073-4-3.521-13.009-2.618-14.759s3.559-8.828,3.559-8.828l3.658-2.307,6.635.213Z" transform="translate(-155.626 -387.329)"/><path class="f" d="M221.56,775.05s.867,3.22,1.565,3.573S221.56,775.05,221.56,775.05Z" transform="translate(-170.178 -520.966)"/><path class="f" d="M225.29,743.79s2.24,1.905,3.2,1.9S225.29,743.79,225.29,743.79Z" transform="translate(-172.714 -500.436)"/><path class="e" d="M230.183,467.91v3.9l-2.391-1.105-2.385-1.1-5.188-5.475a39.912,39.912,0,0,1-6.3-5.464c-1.255-1.486-1.885-2.89-.781-3.628a7.162,7.162,0,0,0,1.437-1.352,25.605,25.605,0,0,0,2.861-4.527l.1-.2c1.069-2.1,1.776-3.9,1.776-3.9a21.028,21.028,0,0,1,4.942,2.5c.157.117.3.237.445.343,1.079.951,1.616,2.059.621,3.144a8.476,8.476,0,0,0-.707.91h0a7.192,7.192,0,0,0-.442.745c-.058.113-.115.23-.166.343a8.427,8.427,0,0,0-.659,4.713Z" transform="translate(-164.065 -304.243)"/><path class="k" d="M265.936,426.584c.125.23.3.429.413.666a3.447,3.447,0,0,1,.182,1.651,9.924,9.924,0,0,0,.16,2.629,12.9,12.9,0,0,1,.512,2.317,6.335,6.335,0,0,1-1.037,3.134,2.053,2.053,0,0,0,1.507-.752,1.65,1.65,0,0,1-.275,1.452,2.352,2.352,0,0,0,1.92-1.624,6.048,6.048,0,0,0,.246-2.746,20,20,0,0,1-.186-2.763,10.747,10.747,0,0,0,.074-1.5,5.651,5.651,0,0,0-1.2-2.681l-1.107-1.624a.821.821,0,0,0-.32-.316C265.763,423.948,265.641,426.032,265.936,426.584Z" transform="translate(-200.256 -290.645)"/><path class="f" d="M235.666,451.013a8.478,8.478,0,0,0-.707.91h0a7.193,7.193,0,0,0-.442.745c-.058.113-.115.23-.166.343a8.482,8.482,0,0,1-6.469-3.748l-.1-.154.1-.2c1.069-2.1,1.776-3.9,1.776-3.9a21.029,21.029,0,0,1,4.942,2.5c.157.117.3.237.445.343C236.124,448.82,236.662,449.918,235.666,451.013Z" transform="translate(-174.407 -304.21)"/><path class="e" d="M240.117,422.616a9.118,9.118,0,0,1-7.077,9.12,8.447,8.447,0,0,1-1.568.151h-.32c-4.727-.188-8.435-4.417-8.319-9.488s4.012-9.1,8.742-9.04,8.536,4.188,8.539,9.261Z" transform="translate(-171.042 -283.423)"/><path class="f" d="M246.6,490.645s4.353,2.636,3.236.412l-5.678-9.007h0l6.449,8.907s4.116,6.062,1.866,10.242c0,0-.32,3.474.054,4.3s-.112,9.611-.112,9.611-1.536-1.531-2.359-1.236-6.641.824-6.641.824Z" transform="translate(-185.041 -328.537)"/><path class="f" d="M252.383,572.448l-.08,1.63c-.522-.408-1.248-.862-1.732-.687-.823.3-6.641.824-6.641.824l.269-2.025Z" transform="translate(-185.388 -387.737)"/><path class="k" d="M247.115,490.645s4.356,2.636,3.239.412l-5.681-9.007h0l6.449,8.907s4.116,6.062,1.866,10.242c0,0-.32,3.474.054,4.3s-.109,9.611-.109,9.611-1.536-1.531-2.359-1.236-6.645.824-6.645.824Z" transform="translate(-185.388 -328.537)"/><path class="f" d="M221.258,487.648a33.747,33.747,0,0,1-1.338,6.178s-.768,8.361-1.757,10.833-.551,5.887-1.1,12.185a8.305,8.305,0,0,1-1.8,4.878A6.463,6.463,0,0,1,209.9,523.7a3.892,3.892,0,0,1-.406-.031c-2.743-.3-5.377-14.481-5.377-14.481s-1.261-12.065-.768-13.713-.493-11.07-.823-13.129a12.12,12.12,0,0,1,.906-4.826c.285-.8.518-1.356.518-1.356a14.6,14.6,0,0,1,2.471-4.826,2.168,2.168,0,0,1,1.629-.731,3.833,3.833,0,0,1,2.032.686l.07.048s9.993,10.949,10.924,13.479A7.007,7.007,0,0,1,221.258,487.648Z" transform="translate(-157.204 -321.023)"/><path class="i" d="M220.231,487.161a34.352,34.352,0,0,1-1.341,6.2s-.768,8.358-1.757,10.829-.551,5.887-1.1,12.185a8.286,8.286,0,0,1-1.8,4.878,6.466,6.466,0,0,1-5.371,1.984l-.4-.034c-2.746-.292-5.38-14.481-5.38-14.481s-1.261-12.065-.768-13.713-.493-11.066-.823-13.129a12.12,12.12,0,0,1,.906-4.826c.285-.8.519-1.352.519-1.352a14.6,14.6,0,0,1,2.471-4.826,2.193,2.193,0,0,1,1.629-.735,3.851,3.851,0,0,1,2.032.686.584.584,0,0,1,.07.052s9.993,10.946,10.924,13.479A6.928,6.928,0,0,1,220.231,487.161Z" transform="translate(-156.504 -320.715)"/><path class="f" d="M218.464,645.27s-2.266,2.162-3.047,2.06S218.464,645.27,218.464,645.27Z" transform="translate(-165.93 -435.732)"/><path class="f" d="M220.174,651.255a30.51,30.51,0,0,1-3.1,1.373C216.359,652.81,219.265,650.95,220.174,651.255Z" transform="translate(-167.051 -439.641)"/><path class="f" d="M255.9,556.545s3.54.045,4.074,1.236S257.052,556.061,255.9,556.545Z" transform="translate(-193.527 -377.426)"/><path class="f" d="M254.35,562.7a12.363,12.363,0,0,1,3.54,1.321C258.713,564.725,254.35,562.7,254.35,562.7Z" transform="translate(-192.473 -381.504)"/><path class="f" d="M236.14,541.73s-.32,11.965-1.543,13.51S236.14,541.73,236.14,541.73Z" transform="translate(-178.83 -367.732)"/><path class="f" d="M229.367,638.72s-2.26,10.555,2.285,11.214S234.8,637.92,234.8,637.92Z" transform="translate(-175.104 -430.905)"/><path class="e" d="M228.807,638.21s-2.26,10.551,2.289,11.214,3.146-12.014,3.146-12.014Z" transform="translate(-174.724 -430.57)"/><path class="f" d="M227.531,421.588a3.55,3.55,0,0,1-.32-.642c-.6-1.349-2.16-.686-3.3-.045-.2.281-.406.559-.611.841a5.29,5.29,0,0,0-.695,1.15,9.39,9.39,0,0,0-.291,1.03c-.157.6-.387,1.171-.6,1.751a21.641,21.641,0,0,0-1.219,6.058,8.452,8.452,0,0,1-1.568.151h-.038v-.045c.058-.233.106-.47.15-.707h0a13.147,13.147,0,0,0,.086-4.054v-.086c-.042-.3-.1-.6-.118-.9l-.32.628c-.688,1.373-1.411,2.746-2.711,3.347a5.248,5.248,0,0,1-1.648.4,8.651,8.651,0,0,0-2.061.367,1.267,1.267,0,0,0-.6.384,2,2,0,0,0-.3.968,8.177,8.177,0,0,1-.32,1.342,11.821,11.821,0,0,1-2.689,4.3l-.3.312a5.524,5.524,0,0,1-1.776,1.318,5.1,5.1,0,0,1-1.885.3c.285-.8.519-1.352.519-1.352a14.6,14.6,0,0,1,2.471-4.826,2.193,2.193,0,0,1,1.629-.735,26,26,0,0,0,2.964-4.726,9.82,9.82,0,0,1-.239-10.63,8.378,8.378,0,0,1,9.234-3.874,9.08,9.08,0,0,1,6.551,7.983Z" transform="translate(-158.511 -283.418)"/><path class="k" d="M220.161,402.3a5.866,5.866,0,0,0-1.92-1.322,1.447,1.447,0,0,1-.624-.487,2.16,2.16,0,0,1-.192-.841c-.24-1.792-1.8-3.031-3.342-3.759-1.991-.934-4.382-1.335-6.293-.223a20.645,20.645,0,0,0-2.5,2.077c-1.063.875-2.285,1.486-3.418,2.245a6.982,6.982,0,0,0-2.753,3.041c-.832,2.025-.208,4.352-.1,6.563a11.131,11.131,0,0,1-3.783,9.189,3.384,3.384,0,0,0-.832.779,1.04,1.04,0,0,0-.067,1.112c.131.192.349.3.493.477a1.622,1.622,0,0,1,.122,1.4,8.9,8.9,0,0,1-2.2,4.023c.045.364.455.5.791.559a16.765,16.765,0,0,0,2.685.209,4.349,4.349,0,0,0,3.754-1.62,11.132,11.132,0,0,0,3.316-5.948,2.057,2.057,0,0,1,.3-.971,1.317,1.317,0,0,1,.6-.384c1.194-.443,2.561-.227,3.71-.765,1.5-.686,2.24-2.4,3.025-3.978.026.3.077.6.122.9a13.136,13.136,0,0,1-.224,4.847,10.728,10.728,0,0,0-.5,2.715c.016.686.666,4.27,1.52,3.2s.541-3.432.541-4.781a21.787,21.787,0,0,1,1.248-7.291c.2-.58.439-1.153.6-1.751a10.14,10.14,0,0,1,.288-1.03,5.521,5.521,0,0,1,.7-1.15l.611-.841c1.139-.645,2.695-1.3,3.3.045.23.518.355,1.091.96.59a2.387,2.387,0,0,0,.566-1.335C221.044,405.928,221.358,403.728,220.161,402.3Z" transform="translate(-150.589 -271.365)"/><path class="f" d="M218.175,500.134c-.234-6.343-8.507-7.654-10.437-1.654-.016.041-.029.079-.042.12-1.261,4.064-.711,14.348-.711,14.348s.163,6.9.768,9.2,2.3,8.887,2.3,9.954,1.578,5.121,2.24,5.416,1,2.588,1.162,3,.656,5.77.656,5.77,6.2-.412,6.312-1.472-1.357-6.244-1.357-6.244a12.609,12.609,0,0,1-1.232-3.827c-.141-1.706-1.018-2.471-.851-3.649s-.5-1.768-.5-2.533a20.05,20.05,0,0,0-.493-2.825,2.452,2.452,0,0,1-.877-1.943c.166-1.061-1.482-3.179-1.043-3.944a8.465,8.465,0,0,0,.547-2.65s.538-8.475.925-10.785,2.634-6,2.634-6Z" transform="translate(-160.187 -336.787)"/><path class="f" d="M216.526,536.981a6.465,6.465,0,0,1-5.371,1.984c-.2-.8-.486-1.788-.906-1.977-.666-.292-2.24-4.352-2.24-5.413s-1.7-7.654-2.3-9.954-.768-9.2-.768-9.2-.551-10.3.714-14.344a.367.367,0,0,1,.038-.124c1.92-6,10.2-4.685,10.437,1.654v.292s-2.24,3.71-2.634,6-.935,10.778-.935,10.778a8.464,8.464,0,0,1-.551,2.646c-.438.762,1.207,2.887,1.043,3.947a2.462,2.462,0,0,0,.877,1.943,20.051,20.051,0,0,1,.493,2.825c0,.765.659,1.352.5,2.53s.714,1.943.855,3.652A10.016,10.016,0,0,0,216.526,536.981Z" transform="translate(-158.794 -336.443)"/><path class="i" d="M217.146,499.619c-.234-6.34-8.507-7.651-10.437-1.654l-.038.124c-1.264,4.061-.714,14.344-.714,14.344s.163,6.906.768,9.2,2.3,8.89,2.3,9.954,1.578,5.121,2.24,5.413,1,2.591,1.162,3,.656,5.77.656,5.77,6.2-.412,6.312-1.472-1.373-6.24-1.373-6.24a12.6,12.6,0,0,1-1.229-3.834c-.141-1.716-1.018-2.471-.851-3.649s-.5-1.764-.5-2.53a20.048,20.048,0,0,0-.493-2.825,2.459,2.459,0,0,1-.877-1.943c.166-1.057-1.482-3.178-1.043-3.944a8.462,8.462,0,0,0,.547-2.65s.551-8.478.935-10.771,2.634-6.007,2.634-6.007S217.153,499.808,217.146,499.619Z" transform="translate(-159.488 -336.45)"/><path class="f" d="M209.34,552.235c.163-.175,3.294-3.886,4.279-2.561S209.34,552.235,209.34,552.235Z" transform="translate(-161.869 -372.762)"/><path class="f" d="M210.24,561.148c.122-.134,3.127-.264,3.87-2.059S210.24,561.148,210.24,561.148Z" transform="translate(-162.481 -378.819)"/><g class="b" transform="translate(42.257 133.269)"><path d="M198.2,468.5a.945.945,0,0,1,.163.323,1.457,1.457,0,0,0-.163-1.2c-.147-.178-.362-.288-.5-.477l-.026-.051a.974.974,0,0,0,.026.934C197.843,468.216,198.058,468.322,198.2,468.5Z" transform="translate(-196.128 -451.98)"/><path d="M211.932,429v-1c-.058-1.2-.266-2.434-.32-3.635-.064,1.473.243,3.021.32,4.521C211.932,428.918,211.928,428.956,211.932,429Z" transform="translate(-205.665 -423.917)"/><path d="M249.48,475.313c-.762.958-1.36-1.8-1.492-2.883a4.821,4.821,0,0,0-.029.57c.019.687.666,4.27,1.52,3.2a4.976,4.976,0,0,0,.6-3.11A3.86,3.86,0,0,1,249.48,475.313Z" transform="translate(-230.385 -455.487)"/><path d="M211.352,448.645a12.708,12.708,0,0,1,.118,1.4,12.9,12.9,0,0,0-.118-2.279c-.042-.3-.1-.6-.122-.9-.791,1.582-1.524,3.278-3.021,3.975-1.162.542-2.516.326-3.713.769a1.334,1.334,0,0,0-.6.384,2.054,2.054,0,0,0-.3.968,11.154,11.154,0,0,1-3.319,5.948,4.365,4.365,0,0,1-3.754,1.624,16.739,16.739,0,0,1-2.682-.209,1.731,1.731,0,0,1-.4-.113c-.125.151-.256.3-.391.436.045.364.458.5.794.56a16.739,16.739,0,0,0,2.682.209,4.349,4.349,0,0,0,3.754-1.62,11.158,11.158,0,0,0,3.319-5.948,2.055,2.055,0,0,1,.3-.971,1.334,1.334,0,0,1,.6-.384c1.2-.443,2.561-.227,3.713-.765,1.5-.686,2.24-2.4,3.021-3.978C211.256,448.044,211.31,448.346,211.352,448.645Z" transform="translate(-193.05 -438.694)"/><path d="M262.667,425.349a2.4,2.4,0,0,1-.567,1.332c-.6.5-.723-.069-.96-.587-.6-1.352-2.16-.687-3.3-.045l-.611.841a5.29,5.29,0,0,0-.695,1.15,9.373,9.373,0,0,0-.291,1.03c-.157.6-.387,1.17-.6,1.751a21.837,21.837,0,0,0-1.258,7.294v.36a21.812,21.812,0,0,1,1.251-6.772c.208-.58.439-1.153.6-1.75a9.378,9.378,0,0,1,.291-1.03,5.375,5.375,0,0,1,.695-1.15l.611-.841c1.139-.645,2.7-1.3,3.3.045.234.518.355,1.091.96.59a2.409,2.409,0,0,0,.567-1.335,12.419,12.419,0,0,0,.32-3.161A16.175,16.175,0,0,1,262.667,425.349Z" transform="translate(-234.757 -423.07)"/></g><path class="k" d="M303.373,502.028l.17.124a.734.734,0,0,1-.284-.467.77.77,0,0,1,.108-.545L311,489.263a.677.677,0,0,1,.443-.311.643.643,0,0,1,.517.126l-.17-.127a1.225,1.225,0,0,1,.278,1.627l-7.176,11.152A1.046,1.046,0,0,1,303.373,502.028Z" transform="translate(-225.72 -333.062)"/><path class="i" d="M.548,0,.709,0l.5,15.533-.16-.005a.625.625,0,0,1-.589-.6L0,.563A.534.534,0,0,1,.548,0Z" transform="translate(85.677 155.636) rotate(34.56)"/><path class="k" d="M.054,0H.083A.061.061,0,0,1,.141.06L.178,1.211a.052.052,0,0,1-.054.055H.094a.061.061,0,0,1-.058-.059L0,.055A.052.052,0,0,1,.054,0Z" transform="translate(85.123 157.681) rotate(34.56)"/><g class="b" transform="translate(294.289 132.407)"><path class="l" d="M980.48,421.236a1.675,1.675,0,0,0,.1-.57l.2-.106C980.682,420.787,980.585,421.013,980.48,421.236Z" transform="translate(-980.48 -420.56)"/></g><g class="b" transform="translate(322.545 205.072)"><path class="m" d="M1069.477,635.655a1.464,1.464,0,0,0-.051-.305c-.214-.954-.454-2.059-.666-3.089.1.487.454,2.132.746,3.432Z" transform="translate(-1068.76 -632.26)"/></g><g class="b" transform="translate(291.78 86.989)"><path class="n" d="M972.64,288.322l.093-.065.016-.017Z" transform="translate(-972.64 -288.24)"/></g><path class="o" d="M976.149,397.19a4.367,4.367,0,0,1-.32-2.609,38.638,38.638,0,0,0,.263-7.129c-.237-.453-1.536-1.091-1.552-1.1l-.058-.278c-.026-.127-.051-.254-.074-.378a10.953,10.953,0,0,0,1.421-1.809,5.38,5.38,0,0,1-2.01-4.325c0-2.959-3.009-12.443-3.009-12.443s-1.722-2.657-1.075-3.944.07-5.083.07-5.083l1.363-2.355s.215-2.276.429-4.627-1.28-4.932-.573-6.069-.288-6.824-.288-6.824-.64-7.225-1.687-9.645v-.017a21.941,21.941,0,0,1-.455-3.137c0-.268-.029-.542-.032-.82,1.69-3.251,4.161-8.077,4.078-8.5a11.368,11.368,0,0,1,.573-2.808l.538-5.31s.861-8.536.931-13.466-2.509-6.831-2.509-6.831a1.823,1.823,0,0,0-1.773.412,1.808,1.808,0,0,1,.787-.522l.182-.041a1.58,1.58,0,0,1,.787.144h0c-.035-.031-.147-.113-.32-.23a1.457,1.457,0,0,0,.432-.137,1.212,1.212,0,0,0,.531-.6,1.457,1.457,0,0,0,.246-.474H973a1.783,1.783,0,0,0,.087-.686,3.258,3.258,0,0,0-.64-1.545c-1.453-2.059-3.873-3.292-5.006-5.567-.96-1.96-.8-4.315-.483-6.5s.768-4.431.275-6.58a8.724,8.724,0,0,0-3.2-4.847,12.529,12.529,0,0,0-5.23-2.276,4.959,4.959,0,0,0-2.641.021c-.64.233-1.21.687-1.847.971-1.447.628-3.111.251-4.628.652a6.27,6.27,0,0,0-3.425,2.619,10.577,10.577,0,0,0-.883,1.6,17.526,17.526,0,0,0-1.05,2.832,8.223,8.223,0,0,0-.15,1.263,1.129,1.129,0,0,1-.259.244,1.477,1.477,0,0,0-.387.6,2.153,2.153,0,0,0,0,2,3.194,3.194,0,0,0,.058.789,7.4,7.4,0,0,0,.4,1.095,19.458,19.458,0,0,1,.451,13.177c-.185.093-.371.189-.567.3,0,0-.122.1-.32.3a9.806,9.806,0,0,0-2.906,7.057c.214,4.4,0,10.7,0,10.7a31.771,31.771,0,0,0-.218,5.773c-.08,1.332,0,3.776,1.456,5.375a2.242,2.242,0,0,0,2.7.491,3.647,3.647,0,0,0,1.744-1.565,5.192,5.192,0,0,1-1.895,2.513c-1.075.532-.81,3.038-.81,3.038s-1.2,1.517-.983,2.2-1.719,1.442-.717,2.427c.058.058.151.141.269.247h0a7.055,7.055,0,0,0-1.92,3.776,58.6,58.6,0,0,1-1.328,6.556.476.476,0,0,0-.377.333.528.528,0,0,0,.105.512,2.819,2.819,0,0,1-.394.793,14.432,14.432,0,0,0-1.3,1.757.5.5,0,0,0-.32.477.46.46,0,0,0,0,.1,2.287,2.287,0,0,0-.24,2.145c.788,1.291.932,5.691.932,5.691s-.288,3.944.5,5.234,1.434,9.484-.288,11.911c0,0-.573,5.615-.358,6.144s-.931,1.9-.573,3.038,2.077,22.077,1.863,22.912c0,0,.6-.093,1.443-.165-.019.151-.038.306-.061.463-.051.378-.109.776-.176,1.167a1.207,1.207,0,0,1-.042.24c-.32-.511-.813-.786-1.488-.172l-1,1.919s-1.469,3-3.063,3.261a6.848,6.848,0,0,0-2.807,1.407c-.208.168-.32.281-.32.281s-1.936,1.716.608,2.447a16.672,16.672,0,0,0,2.01.415,22.77,22.77,0,0,0,7.909-.223,12.36,12.36,0,0,1,1.92-.23,6.15,6.15,0,0,0,3.316-.759s.25-2.77,0-3.038a.751.751,0,0,1-.093-.151c-.384-.731-1.418-3.721-1.418-3.721s-.115,0-.259.185l-.048-.237a17.849,17.849,0,0,1-.3-2.526v-.456a2.152,2.152,0,0,1,.771.439,15.756,15.756,0,0,0,0-3.872,32.75,32.75,0,0,1,.861-9.484c.643-1.589.791-7.661.573-8.269,0,0,1.149-5.385.717-6.45s1.847-10.864,1.847-10.864,1.146-2.351.861-2.653c0,0,1.863-1.291,1.648-2.276s1.719-2.125,1.719-2.125a42.907,42.907,0,0,0,2.295,5.149c.573.686.6,5.083,1.3,5.993s1.636,5.691,2.561,6.982,4.66,4.7,5.236,8.581c0,0,3.367,5.54,3.223,7.284a2.554,2.554,0,0,0,1.68,2.183l-.051.436-.134,1.212h0s-1.015.124-1.181,2.5-.122,4.984-.6,5.667a7.9,7.9,0,0,0-.877,1.442c-.531,1.232-.554,2.825,2.657,3.336,4.91.786,6.107-2.125,6.107-2.125a9.314,9.314,0,0,0,.387-1.716,1.053,1.053,0,0,0-.07-.6Z" transform="translate(-652.049 -181.433)"/><path class="p" d="M972.549,296.868a7.163,7.163,0,0,0,.384,1.078,19.415,19.415,0,0,1,.208,13.685,22.753,22.753,0,0,1,3.444.216,6.814,6.814,0,0,0,3.4-.4,3.65,3.65,0,0,0,2.151-2.787c.211-1.716-.96-3.216-1.981-4.521a10.654,10.654,0,0,1-2.359-4.531c-.339-1.9.144-4.14-.979-5.622a1.14,1.14,0,0,0-.371-.343,4.023,4.023,0,0,0-2.782.082A3.179,3.179,0,0,0,972.549,296.868Z" transform="translate(-680.759 -204.661)"/><path class="q" d="M1052.522,643.946a9.185,9.185,0,0,1-.378,1.685s-1.162,2.87-5.947,2.094c-3.124-.5-3.1-2.077-2.583-3.292a7.927,7.927,0,0,1,.851-1.424c.464-.686.419-3.244.583-5.588s1.149-2.468,1.149-2.468l.061,2.639c1.863-2.619,3.166.45,3.166.45s2.647.062,2.324-1.4c-.346-1.548-.861-4.006-.861-4.006s1.28.638,1.514,1.088a37.661,37.661,0,0,1-.256,7.036,4.225,4.225,0,0,0,.32,2.571A1.04,1.04,0,0,1,1052.522,643.946Z" transform="translate(-728.94 -427.437)"/><path class="q" d="M1052.522,665.58a9.189,9.189,0,0,1-.378,1.685s-1.162,2.869-5.947,2.094c-3.124-.5-3.1-2.077-2.583-3.292.439.686,1.427,1.236,3.55,1.03C1050.41,666.823,1051.815,666.239,1052.522,665.58Z" transform="translate(-728.94 -449.071)"/><path class="f" d="M1052.522,665.58a9.189,9.189,0,0,1-.378,1.685s-1.162,2.869-5.947,2.094c-3.124-.5-3.1-2.077-2.583-3.292.439.686,1.427,1.236,3.55,1.03C1050.41,666.823,1051.815,666.239,1052.522,665.58Z" transform="translate(-728.94 -449.071)"/><path class="r" d="M1057.183,629.365a2.78,2.78,0,0,1-1.824,2.667,3.324,3.324,0,0,1-3.066-.5,2,2,0,0,1-.759-1.812l.074-.662.269-2.4.368-3.333s3.962-2.166,3.7-1.346a13.75,13.75,0,0,0,.435,3.281c.221,1.143.493,2.4.733,3.474a3,3,0,0,1,.07.635Z" transform="translate(-734.494 -420.311)"/><path class="f" d="M1050.8,639.869s3.431-4.321,6.241.395l-.471,3.021h-5.761Z" transform="translate(-734.003 -430.997)"/><path class="q" d="M1050.8,640.739s3.431-4.322,6.241.395l-.471,3.021h-5.761Z" transform="translate(-734.003 -431.569)"/><ellipse class="s" cx="0.349" cy="0.374" rx="0.349" ry="0.374" transform="translate(320.906 211.093)"/><ellipse class="s" cx="0.349" cy="0.374" rx="0.349" ry="0.374" transform="translate(316.445 210.492)"/><ellipse class="s" cx="0.349" cy="0.374" rx="0.349" ry="0.374" transform="translate(319.703 213.629)"/><ellipse class="s" cx="0.349" cy="0.374" rx="0.349" ry="0.374" transform="translate(316.659 213.186)"/><ellipse class="s" cx="0.349" cy="0.374" rx="0.349" ry="0.374" transform="translate(320.378 212.438)"/><ellipse class="s" cx="0.349" cy="0.374" rx="0.349" ry="0.374" transform="translate(316.445 211.841)"/><ellipse class="s" cx="0.349" cy="0.374" rx="0.349" ry="0.374" transform="translate(319.354 215.019)"/><ellipse class="s" cx="0.349" cy="0.374" rx="0.349" ry="0.374" transform="translate(316.659 214.535)"/><path class="r" d="M964.8,661.156l-4.747,1.716s-2.513-2.694-1.815-3.518a7.884,7.884,0,0,0,.755-2.746c.064-.384.122-.779.173-1.153.163-1.219.259-2.241.259-2.241s5.515-2.842,4.606,0a7.545,7.545,0,0,0-.259,2.489,17.732,17.732,0,0,0,.294,2.492A24.876,24.876,0,0,0,964.8,661.156Z" transform="translate(-670.986 -440.119)"/><path class="f" d="M964.8,670.068l-4.747,1.716s-2.513-2.694-1.815-3.518A7.885,7.885,0,0,0,959,665.52a5.541,5.541,0,0,1,.554,1.661c4.1,2.4,4.161.971,4.161.971a2.773,2.773,0,0,1,.349-1.047A24.9,24.9,0,0,0,964.8,670.068Z" transform="translate(-670.986 -449.032)"/><path class="q" d="M948.2,673.522a5.922,5.922,0,0,1-3.229.748,12.238,12.238,0,0,0-1.879.227,21.815,21.815,0,0,1-7.682.223,15.25,15.25,0,0,1-1.959-.412c-2.477-.731-.6-2.4-.6-2.4s.122-.11.32-.278a6.344,6.344,0,0,1,2.73-1.373c1.552-.264,2.983-3.22,2.983-3.22l.96-1.891c1.517-1.4,2.042,1.891,2.042,1.891,4.1,2.4,4.161.971,4.161.971.227-1.291.64-1.291.64-1.291s1.024,2.952,1.392,3.686a.751.751,0,0,0,.093.151C948.44,670.79,948.2,673.522,948.2,673.522Z" transform="translate(-653.344 -448.556)"/><path class="q" d="M948.2,684.224a5.922,5.922,0,0,1-3.229.748,12.246,12.246,0,0,0-1.879.227,21.813,21.813,0,0,1-7.682.223,15.271,15.271,0,0,1-1.959-.412c-2.477-.731-.6-2.4-.6-2.4s.122-.11.32-.278a21.141,21.141,0,0,0,5.294.783c2.24-.148,4.4-.536,4.4-.536a48.1,48.1,0,0,1,5.249-1.486.744.744,0,0,0,.093.151A12.817,12.817,0,0,1,948.2,684.224Z" transform="translate(-653.344 -459.257)"/><path class="f" d="M948.2,684.224a5.922,5.922,0,0,1-3.229.748,12.246,12.246,0,0,0-1.879.227,21.813,21.813,0,0,1-7.682.223,15.271,15.271,0,0,1-1.959-.412c-2.477-.731-.6-2.4-.6-2.4s.122-.11.32-.278a21.141,21.141,0,0,0,5.294.783c2.24-.148,4.4-.536,4.4-.536a48.1,48.1,0,0,1,5.249-1.486.744.744,0,0,0,.093.151A12.817,12.817,0,0,1,948.2,684.224Z" transform="translate(-653.344 -459.257)"/><ellipse class="s" cx="0.349" cy="0.374" rx="0.349" ry="0.374" transform="translate(288.186 219.317)"/><ellipse class="s" cx="0.349" cy="0.374" rx="0.349" ry="0.374" transform="translate(286.188 220.364)"/><ellipse class="s" cx="0.349" cy="0.374" rx="0.349" ry="0.374" transform="translate(287.261 219.828)"/><ellipse class="s" cx="0.349" cy="0.374" rx="0.349" ry="0.374" transform="translate(285.062 220.981)"/><path class="f" d="M966.235,653.233a7.54,7.54,0,0,0-.259,2.489,12.53,12.53,0,0,0-4.606-.247c.163-1.219.259-2.241.259-2.241S967.144,650.391,966.235,653.233Z" transform="translate(-673.197 -440.133)"/><path class="f" d="M1057.133,625.216c-1.716,1.8-3.358,1.915-4.5,1.4l.368-3.333s3.963-2.166,3.7-1.346A13.231,13.231,0,0,0,1057.133,625.216Z" transform="translate(-735.247 -420.285)"/><path class="s" d="M957.467,452.83a7.389,7.389,0,0,0-3.2,4.864c-.477,3.22-1.328,7.339-1.956,8.087s-2.583,3.144-1.815,4.414.906,5.616.906,5.616-.278,3.892.49,5.166,1.4,9.357-.279,11.753a50.879,50.879,0,0,0-.349,6.065c.211.525-.909,1.871-.56,2.993s2.026,21.786,1.815,22.609c0,0,5.307-.824,6.7.522a15.84,15.84,0,0,0,0-3.817,32.776,32.776,0,0,1,.839-9.357c.627-1.572.768-7.551.557-8.162,0,0,1.117-5.313.7-6.36s1.805-10.7,1.805-10.7,1.117-2.32.839-2.619c0,0,1.815-1.273,1.6-2.248s1.674-2.094,1.674-2.094a41.886,41.886,0,0,0,2.24,5.09c.563.676.579,5.015,1.28,5.914s1.6,5.612,2.5,6.885,4.535,4.641,5.1,8.461c0,0,3.281,5.464,3.14,7.184s3.7,4.867,7.4-.971a5.333,5.333,0,0,1-1.952-4.267c0-2.921-2.932-12.278-2.932-12.278s-1.677-2.619-1.05-3.892.07-5.015.07-5.015l1.328-2.324s.208-2.245.416-4.565-1.255-4.867-.557-5.99-.278-6.731-.278-6.731-.871-9.673-2.164-10.26S957.467,452.83,957.467,452.83Z" transform="translate(-665.684 -309.346)"/><path class="r" d="M972.306,368.645s-1.434.175-3.175.343c-2.519.254-5.681.511-6.056.247-.64-.45,0-6.141,0-6.141s.218-6.213,0-10.555a9.714,9.714,0,0,1,2.829-6.961,4.153,4.153,0,0,1,.32-.3l.7.6,3.978,7.263Z" transform="translate(-674.163 -238.712)"/><path class="r" d="M1008.079,320.32l-3.908,2.543-6.424,5.241s-6.632-3.741-4.955-5.914a3.466,3.466,0,0,0,.611-1.469c.506-2.5-.611-6.093-.611-6.093s8.735-12.652,8.235-2.842c-.2,3.94.9,6.089,2.285,7.256A6.416,6.416,0,0,0,1008.079,320.32Z" transform="translate(-694.377 -214.267)"/><ellipse class="f" cx="8.085" cy="9.185" rx="8.085" ry="9.185" transform="translate(293.62 85.616)"/><ellipse class="r" cx="8.085" cy="9.185" rx="8.085" ry="9.185" transform="translate(293.62 85.318)"/><path class="f" d="M1008.079,341.337l-3.908,2.543-6.424,5.241s-6.632-3.741-4.955-5.914a3.466,3.466,0,0,0,.611-1.469c7.317,6.707,9.538-.233,9.922-1.678A6.38,6.38,0,0,0,1008.079,341.337Z" transform="translate(-694.377 -235.284)"/><path class="f" d="M978.513,368.677s-1.434.175-3.175.343c-.067-1.613-.294-3.432-.253-4.545.07-1.871.07-2.1-.49-3.144a5.427,5.427,0,0,1-.419-3.22c.067-1.291-.25-1.551-1.383-3.614l-.151-.278a11.231,11.231,0,0,1-.723-4.641.021.021,0,0,0,0-.021c0-.415,0-.827.022-1.219v-.034c.042-1.184.131-2.2.179-2.677a4.157,4.157,0,0,1,.32-.3l.7.6,3.979,7.263Z" transform="translate(-680.37 -238.745)"/><path class="q" d="M996.5,342.539h-.016c-2.529-1.17-3.962,4.72-4.346,6.573-.07.343-.106.546-.106.546s.045.5.1,1.287c.189,2.65.515,8.581-.24,10.016a2.562,2.562,0,0,0-.179.481,10.918,10.918,0,0,0-.086,3.474,36.479,36.479,0,0,0,.618,3.906s1.674,4.569.976,7.551a11.86,11.86,0,0,0-.2,3.395,21.78,21.78,0,0,0,.442,3.089c.067.3.112.467.112.467a31.418,31.418,0,0,1-3.089.965,28.092,28.092,0,0,1-5.969.865,25.4,25.4,0,0,1-17.207-5.852c-.118-.1-.2-.185-.262-.244-.96-.971.909-1.716.7-2.4s.96-2.169.96-2.169-.259-2.471.791-2.993,1.815-2.324,2.4-3.82-.1-5.389-.032-7.26.07-2.1-.49-3.144a5.4,5.4,0,0,1-.416-3.22c.067-1.291-.253-1.551-1.386-3.614l-.15-.278a11.181,11.181,0,0,1-.72-4.641v-.021c0-.415,0-.827.019-1.219v-.021c.057-1.661.211-2.976.211-2.976,5.585-3.072,6.91.127,6.91.127,8.168,7.551,10.021-1.881,10.021-1.881,4.446-1.63,10.294,2.746,10.626,3.014Z" transform="translate(-676.867 -234.695)"/><path class="r" d="M963.132,409.92s-.7,4,1.322,6.226a2.155,2.155,0,0,0,2.628.484,3.593,3.593,0,0,0,1.706-1.551C969.342,413.75,967.6,407.263,963.132,409.92Z" transform="translate(-674.316 -280.749)"/><path class="f" d="M1044.889,383.5a2.55,2.55,0,0,0-.179.48l.32-8.753.1-1.744C1045.318,376.13,1045.645,382.054,1044.889,383.5Z" transform="translate(-729.863 -257.233)"/><path class="f" d="M1025.694,425.608a11.844,11.844,0,0,0-.2,3.395c-.452.882-.839,1.627-1.092,2.111l-.32.6a14.2,14.2,0,0,0-1.133,1.823,3.73,3.73,0,0,0-.47,1.479c0,1.15-1.082,8.825-6.213,6.916-3.316-1.232-1.2-5.008.714-7.531a27.805,27.805,0,0,1,2.042-2.4s.592-.81,1.162-1.654a10.078,10.078,0,0,0,1-1.716c.243-.748,1.856-4.04,1.856-4.04s1.6-3.632,1.252-5.317a34.788,34.788,0,0,1-.2-5.149,36.57,36.57,0,0,0,.618,3.906S1026.392,422.615,1025.694,425.608Z" transform="translate(-709.339 -283.923)"/><path class="r" d="M1028.734,348.846s2.513,1.874,2.442,6.738-.906,13.287-.906,13.287l-.525,5.241a11.378,11.378,0,0,0-.557,2.77c.106.635-5.47,11.306-5.47,11.306s-1.6,2.152-1.6,3.305-1.082,8.821-6.213,6.913,2.756-9.92,2.756-9.92a26.52,26.52,0,0,0,2.167-3.367c.246-.748,1.853-4.043,1.853-4.043s1.6-3.628,1.252-5.313a62.048,62.048,0,0,1-.141-7.8l.349-9.57.141-2.434S1025.559,347.878,1028.734,348.846Z" transform="translate(-709.098 -241.001)"/><path class="i" d="M975.129,397.988l3.812-1.483a1.707,1.707,0,0,1,1.853.412l5.054,5.118s.278.824-.093.786-5.816-5.88-5.816-5.88l-5.4,1.946h0a.96.96,0,0,1,.589-.9Z" transform="translate(-682.152 -272.278)"/><path class="s" d="M919.452,371.088l5.233-2.032-5.816-5.876-5.4,1.946Z" transform="translate(-621.085 -238.509)"/><ellipse class="q" cx="0.464" cy="0.498" rx="0.464" ry="0.498" transform="translate(290.039 148.402)"/><ellipse class="q" cx="0.464" cy="0.498" rx="0.464" ry="0.498" transform="translate(286.873 154.814)"/><ellipse class="q" cx="0.464" cy="0.498" rx="0.464" ry="0.498" transform="translate(312.152 157.145)"/><ellipse class="q" cx="0.464" cy="0.498" rx="0.464" ry="0.498" transform="translate(314.783 166.203)"/><ellipse class="q" cx="0.464" cy="0.498" rx="0.464" ry="0.498" transform="translate(313.759 163.656)"/><ellipse class="q" cx="0.464" cy="0.498" rx="0.464" ry="0.498" transform="translate(312.869 160.399)"/><ellipse class="q" cx="0.464" cy="0.498" rx="0.464" ry="0.498" transform="translate(288.349 151.437)"/><ellipse class="q" cx="0.464" cy="0.498" rx="0.464" ry="0.498" transform="translate(285.027 158.144)"/><path class="k" d="M1000.588,342.536h0c-2.529-1.17-3.962,4.72-4.347,6.573l-3.969-6.089s-1.626,2.794-6.888,3.216a6.094,6.094,0,0,1-6.536-4.291c-.723-.062-3.991,6.247-5.179,8.512l-.15-.278a11.179,11.179,0,0,1-.72-4.641v-.021c0-.405,0-.814.019-1.219v-.048c.058-1.661.211-2.976.211-2.976,5.585-3.072,6.91.127,6.91.127,8.168,7.551,10.021-1.881,10.021-1.881C994.408,337.885,1000.256,342.275,1000.588,342.536Z" transform="translate(-680.969 -234.691)"/><path class="f" d="M962.83,508.44c.07.189,5.934,7.449,8.1,7.823S962.83,508.44,962.83,508.44Z" transform="translate(-674.19 -345.868)"/><path class="f" d="M972.129,476s.061,5.121-1.405,6.278S972.129,476,972.129,476Z" transform="translate(-679.274 -324.563)"/><path class="f" d="M983.323,481.29s-.141,6.024,1.952,7.448C985.276,488.742,981.438,484.733,983.323,481.29Z" transform="translate(-687.769 -328.038)"/><path class="f" d="M965.479,571.47s-3.911,3.089-4.993,3.333S965.479,571.47,965.479,571.47Z" transform="translate(-672.508 -387.264)"/><path class="f" d="M972.249,275a2.213,2.213,0,0,0,.32,3.089,4.812,4.812,0,0,0,3.14.879,26.882,26.882,0,0,1,6.328.487,5.048,5.048,0,0,1,2.426,1.332,6.039,6.039,0,0,1,1.261,2.694,15.808,15.808,0,0,1,.432,4.51,16.906,16.906,0,0,0-.064,3.058,10.443,10.443,0,0,0,.89,2.722,116.04,116.04,0,0,0,5.393,10.726,1.981,1.981,0,0,0,.7.827,1.78,1.78,0,0,0,1.6-.268,13.724,13.724,0,0,1-.5-3.251,1.306,1.306,0,0,0,1.434-.535,4.47,4.47,0,0,0,.64-1.572l.938-3.474c.291-1.071.723-2.3,1.722-2.619a6.13,6.13,0,0,0,1.056-.264,1.486,1.486,0,0,0,.64-1.428,3.2,3.2,0,0,0-.64-1.524c-1.411-2.039-3.767-3.247-4.872-5.492-.96-1.932-.784-4.256-.471-6.412s.749-4.373.266-6.491a8.6,8.6,0,0,0-3.111-4.781,12.118,12.118,0,0,0-5.092-2.245,4.7,4.7,0,0,0-2.561.017c-.64.23-1.178.686-1.8.958-1.405.621-3.028.251-4.507.645a6.1,6.1,0,0,0-3.332,2.585,14.218,14.218,0,0,0-1.744,4.071c-.272.951.163,1.332-.64,1.85" transform="translate(-680.255 -185.858)"/><path class="p" d="M972.681,274.142a2.215,2.215,0,0,0,.32,3.089,4.817,4.817,0,0,0,3.137.879,26.706,26.706,0,0,1,6.328.487,5.008,5.008,0,0,1,2.426,1.332,6.043,6.043,0,0,1,1.28,2.691,15.73,15.73,0,0,1,.429,4.514,16.9,16.9,0,0,0-.061,3.058,10.251,10.251,0,0,0,.89,2.722,116.055,116.055,0,0,0,5.393,10.726,1.924,1.924,0,0,0,.7.824,1.776,1.776,0,0,0,1.6-.264,13.907,13.907,0,0,1-.493-3.25,1.315,1.315,0,0,0,1.434-.535,4.457,4.457,0,0,0,.64-1.575l.941-3.47c.291-1.074.72-2.3,1.719-2.619a5.99,5.99,0,0,0,1.056-.264,1.489,1.489,0,0,0,.64-1.428,3.159,3.159,0,0,0-.64-1.524c-1.411-2.039-3.77-3.25-4.871-5.492-.96-1.929-.784-4.253-.471-6.408s.746-4.373.266-6.491a8.646,8.646,0,0,0-3.114-4.785,12.1,12.1,0,0,0-5.089-2.245,4.746,4.746,0,0,0-2.561.021c-.64.23-1.178.686-1.8.958-1.408.621-3.031.251-4.507.645a6.094,6.094,0,0,0-3.332,2.581,14.186,14.186,0,0,0-1.748,4.074c-.272.951.166,1.332-.64,1.85" transform="translate(-680.549 -185.296)"/><path class="r" d="M971,407.365s6.4-4.569,8.2-1.761-5.62,6.251-5.62,6.251Z" transform="translate(-679.745 -277.731)"/><path class="p" d="M976.86,340.708c-.026.439-.1.978-.32,1.061.6-.017,1.184.453,1.776.312a1.879,1.879,0,0,0,1.12-1.239.571.571,0,0,1,.151-.264c.061-.038.128,0,.192.041a18.853,18.853,0,0,1,3.2,2.6c.32.343.691.687,1.05.511a9.117,9.117,0,0,0-.685-3.6,4.491,4.491,0,0,0-1.831-2.149,5.317,5.317,0,0,0-2.151-.6,1.993,1.993,0,0,1-.928-.247c-.32-.2-1.328-1.5-1.555-.553a10.936,10.936,0,0,0,.032,1.936C976.914,339.246,976.9,339.98,976.86,340.708Z" transform="translate(-683.511 -232.774)"/><g class="b" transform="translate(291.673 82.311)"><path d="M994.194,322.951a1.924,1.924,0,0,1-.7-.824A115.308,115.308,0,0,1,988.1,311.4a10.256,10.256,0,0,1-.89-2.722,15.81,15.81,0,0,1,.061-3.062,15.722,15.722,0,0,0-.432-4.51,6.024,6.024,0,0,0-1.261-2.691,5.008,5.008,0,0,0-2.426-1.332,26.7,26.7,0,0,0-6.328-.487,4.9,4.9,0,0,1-3.137-.879,2.43,2.43,0,0,1-.717-2.468,1.49,1.49,0,0,1-.179.154,2.217,2.217,0,0,0,.32,3.062,4.871,4.871,0,0,0,3.137.879,26.689,26.689,0,0,1,6.328.487A5.007,5.007,0,0,1,985,299.164a6.043,6.043,0,0,1,1.261,2.691,15.851,15.851,0,0,1,.432,4.514,16.617,16.617,0,0,0-.064,3.058,10.253,10.253,0,0,0,.89,2.722,116.069,116.069,0,0,0,5.393,10.726,1.909,1.909,0,0,0,.7.824,1.778,1.778,0,0,0,1.6-.264c-.045-.151-.083-.3-.118-.453A1.2,1.2,0,0,1,994.194,322.951Z" transform="translate(-972.306 -286.852)"/><path d="M973.53,293.732l.093-.065v-.017Z" transform="translate(-973.138 -287.115)"/><path d="M975.227,280.411l-.09.065.106-.079h-.016c.662-.484.278-.872.538-1.785a14.416,14.416,0,0,1,1.7-4q-.274.329-.515.686a14.267,14.267,0,0,0-1.744,4.074,6.828,6.828,0,0,0-.138,1.212,1.6,1.6,0,0,1,.157-.172Z" transform="translate(-974.185 -274.61)"/><path d="M1057.544,344.88a5.982,5.982,0,0,1-1.056.261,2.109,2.109,0,0,0-1.168,1.109,1.587,1.587,0,0,1,.611-.343,6.033,6.033,0,0,0,1.053-.264,1.253,1.253,0,0,0,.579-.762Z" transform="translate(-1028.75 -320.76)"/><path d="M1044.15,369.061c0,.257.022.518.045.776a1.572,1.572,0,0,0,.829-.563,2.662,2.662,0,0,0,.275-.463A1.175,1.175,0,0,1,1044.15,369.061Z" transform="translate(-1021.155 -336.476)"/></g><path class="f" d="M966.19,408.75a6.425,6.425,0,0,1,2.673-.566" transform="translate(-676.474 -280.009)"/><path class="f" d="M981.36,433.85s.855,1.424,5.176,2.022S981.36,433.85,981.36,433.85Z" transform="translate(-686.789 -296.881)"/><path class="f" d="M976.5,449.34a11.692,11.692,0,0,0,10.124,2.32C992.859,450.315,976.5,449.34,976.5,449.34Z" transform="translate(-683.484 -307.054)"/><path class="t" d="M592.34,257.971c-.09-.106-.182-.213-.275-.316a4.755,4.755,0,0,0,1.46-2.9c0-1.373-1.139-2.4-1.562-3.717-.576-1.761.221-3.649.551-5.492a10.843,10.843,0,0,0-2.077-8.464,2.8,2.8,0,0,0-1.216-1,5.274,5.274,0,0,0-2.34.2c-2.592.343-4.951-2.059-7.554-1.836a1.338,1.338,0,0,0-.5.12,2.223,2.223,0,0,0-.727.882,7.865,7.865,0,0,1-3.521,2.567,1.842,1.842,0,0,0-.48.233,12.986,12.986,0,0,0-1.181.656c-2.561,1.62-2.183,3.886-.678,5.286-.294,1.572-1.792,2.955-1.533,4.569.2,1.267,1.431,2.128,1.667,3.391a3.6,3.6,0,0,1-.378,2.118c-2.855.711-6.081,2.015-6.334,4.318-.439,4.009-1.757,15.075-1.757,15.075s-1.527,8.866,4.276,4.675l-.074.233a54.59,54.59,0,0,0-2.129,10.452c-.061.529-.179.944-.394,1.081-.077.048.077.127.413.227-.038.148-.08.3-.115.446a45.145,45.145,0,0,0-1.219,7.915,59.126,59.126,0,0,1-.909,7.05c-1.376,7.414,0,16.925,0,16.925l3,15.144.512,2.592a3.614,3.614,0,0,0,1.216.94,21.775,21.775,0,0,1,.416,2.818,1.536,1.536,0,0,0,.022.319,1.238,1.238,0,0,0-.89.6c-1.069,1.61.15,2.9-3.972,6.123a4.187,4.187,0,0,0-1.709,2.235h0a1.546,1.546,0,0,0,.707,1.634h0a2.43,2.43,0,0,0,.288.172h0c.051.024.1.052.157.072h0l.163.065h0l.16.055h0l.173.048h0l.163.038h.019l.179.031h.019l.16.021h.88l.182-.021h.022l.163-.024h.045l.179-.038h.019l.163-.041h.045l.176-.055h0l.166-.062.045-.021.173-.072c2.749-1.291,8.4-4.675,8.4-4.675v-.422a.631.631,0,0,0,0-.079v-.106h0c-.029-1.407-.16-4.644-.755-4.517-.2.041-.343.343-.487.7l-.07-.144a14.363,14.363,0,0,1-1.508-5.289,9.108,9.108,0,0,0,1.3-1.236s-.32-1.373-.57-2.849a15.058,15.058,0,0,1-.346-3.117c.15-1.129-1.834-9.834-1.834-9.834s.2-1.915.615-4.575c.8-5.173,2.372-13.167,4.721-15.429.054-.051.109-.1.163-.148,0,0,1.68.323,3.054,10.479l.4,4.524a27.476,27.476,0,0,0,.583,3.7,20.947,20.947,0,0,1,.381,5.945c-.173,2.667-.247,5.8-.279,8.008-.026,1.661-.026,2.794-.026,2.794a5.925,5.925,0,0,0,.915.687v1.479a1.288,1.288,0,0,1-.32.841h0a2.376,2.376,0,0,0-.461.91,7.107,7.107,0,0,0-.586,2.7c-.32,4.352-.458,3.868-.458,3.868a6.076,6.076,0,0,0-.346,1.466h0a2.81,2.81,0,0,0-.016.285v.175a.447.447,0,0,1,0,.065v.24a.257.257,0,0,0,.022.117c.022.038,0,.034,0,.048.009.039.019.078.032.117v.038l.038.1a.23.23,0,0,0,0,.027.778.778,0,0,0,.058.117l.019.027a1.188,1.188,0,0,0,.07.106l.019.024.093.1h0l.106.089h.019a1.143,1.143,0,0,0,.125.076h.026a.922.922,0,0,0,.144.062h.026a.9.9,0,0,1,.17.048h0a1.475,1.475,0,0,0,.189.031h.624l.263-.031c3.2-.484,4.734-.807,4.58-2.746-.093-1.167-.352-2.859-.541-4.023a6.437,6.437,0,0,0-.528-1.7c0-.089.016-.182.023-.278a6.579,6.579,0,0,0-.176-2.4l.07-1.411a4.149,4.149,0,0,0,2.068-1.328s.022-1.03.09-2.434a36.974,36.974,0,0,1,.675-6.271c.611-1.936,0-8.7,0-8.7s-2.292-11.609-.154-16.606a16.192,16.192,0,0,0,.054-13.115.74.74,0,0,0,.1-.1s-.458-.323-.32-4.03a22.139,22.139,0,0,0-1.027-6.978,15.259,15.259,0,0,0,1.792.687c3.521,1.129,3.818-3.062,3.818-3.062l.791-6.216.906-9.371h0A4.919,4.919,0,0,0,592.34,257.971Zm-15.527-6.209a2.5,2.5,0,0,1-.019.309,4.517,4.517,0,0,1-.2.978,6.849,6.849,0,0,0,.189-1.308Zm9.234,22.884c.054.106.106.213.154.312l-.384-.209a9.774,9.774,0,0,1,.688-2.2,16,16,0,0,0,.932-2.533,27.326,27.326,0,0,0,.138,3.017c.3,2.585-1.527,1.617-1.527,1.617Z" transform="translate(-401.869 -165.916)"/><path class="u" d="M591.22,247.355a2.744,2.744,0,0,0-1.175,1.373c-.279.975.426,1.957.493,2.976.128,1.854-1.828,3.384-1.54,5.217.2,1.256,1.4,2.111,1.629,3.36.339,1.823-1.5,3.432-1.357,5.279a3.709,3.709,0,0,0,1.44,2.437,6.771,6.771,0,0,0,3.521,1.548c-.086-1.586-1.181-3.027-1-4.6a12.023,12.023,0,0,1,1.248-2.959,9.363,9.363,0,0,0,.058-5.626,26.783,26.783,0,0,1-1.082-5.6c-.019-1.15.483-2.839.115-3.93C593.14,245.5,592.055,246.744,591.22,247.355Z" transform="translate(-419.991 -173.667)"/><path class="f" d="M591.22,247.483a2.744,2.744,0,0,0-1.175,1.373c-.279.978.426,1.96.493,2.979.128,1.854-1.828,3.384-1.54,5.217.2,1.256,1.4,2.111,1.629,3.36.339,1.823-1.5,3.432-1.357,5.279a3.709,3.709,0,0,0,1.44,2.434,6.747,6.747,0,0,0,3.521,1.551c-.086-1.586-1.181-3.027-1-4.6a11.969,11.969,0,0,1,1.248-2.959,9.363,9.363,0,0,0,.058-5.626,26.906,26.906,0,0,1-1.085-5.6c-.019-1.15.483-2.842.115-3.934C593.14,245.63,592.055,246.872,591.22,247.483Z" transform="translate(-419.991 -173.75)"/><path class="v" d="M587.188,545.333l-1.341,1.438s-4.772,2.718-4.161-.958a14.176,14.176,0,0,0,.1-3.305,21.814,21.814,0,0,0-.848-4.527l4.481-.961c-.743,2.506.483,5.664,1.248,7.27A10.68,10.68,0,0,0,587.188,545.333Z" transform="translate(-414.531 -364.638)"/><path class="v" d="M623.186,540.285q-.049.739-.17,1.469s-3.735,2.729-4.027-.319c-.192-1.981.246-2.873.576-3.257h0a1.294,1.294,0,0,0,.32-.834V533.76l3.278,1.112-.147,3.038A6.609,6.609,0,0,1,623.186,540.285Z" transform="translate(-440.371 -362.497)"/><path class="w" d="M588.657,555.806l-1.341,1.438s-4.772,2.719-4.161-.958a14.179,14.179,0,0,0,.1-3.305c1.043-.165,2.282,1.067,2.282,1.067,1.748,2.643,2.218,1.644,2.589.714C588.423,555.411,588.657,555.806,588.657,555.806Z" transform="translate(-416.001 -375.111)"/><path class="x" d="M572.18,554.974s-2.087-2.08-3.13-.481.147,2.88-3.876,6.075,0,5.276,2.682,4,8.2-4.637,8.2-4.637,0-5.276-.746-5.118S574.715,558.811,572.18,554.974Z" transform="translate(-402.654 -375.717)"/><path class="w" d="M623.186,548.373q-.049.739-.17,1.469s-3.735,2.729-4.027-.319c-.192-1.981.246-2.873.576-3.257a.843.843,0,0,1,.915-.1c.6-.285,1.251.189,1.8.8A5.741,5.741,0,0,1,623.186,548.373Z" transform="translate(-440.371 -370.585)"/><path class="x" d="M617.93,547.1s-1.639-.961-1.94,3.357-.445,3.837-.445,3.837-1.492,3.837,1.639,3.357,4.622-.8,4.481-2.718c-.09-1.157-.339-2.835-.528-3.985a6.009,6.009,0,0,0-1.4-3.045C619.181,547.284,618.525,546.811,617.93,547.1Z" transform="translate(-437.819 -371.196)"/><path class="s" d="M589.847,422.966s.6,6.714,0,8.633a35.624,35.624,0,0,0-.659,6.22c-.064,1.373-.086,2.4-.086,2.4-2.833,3.2-6.113,0-6.113,0s0-1.122.026-2.767c.029-2.186.1-5.3.272-7.943a21.026,21.026,0,0,0-.375-5.9,28.073,28.073,0,0,1-.576-3.686l-.391-4.486c-1.341-10.074-2.98-10.393-2.98-10.393-.054.045-.106.1-.16.144-2.292,2.245-3.841,10.17-4.606,15.3-.4,2.64-.6,4.538-.6,4.538s1.92,8.636,1.789,9.755a14.924,14.924,0,0,0,.339,3.089c.256,1.448.554,2.825.554,2.825-3.726,4.318-6.261.958-6.261.958l-.5-2.557-2.925-15.017s-1.344-9.432,0-16.788a60.131,60.131,0,0,0,.89-6.992,45.341,45.341,0,0,1,1.187-7.85q.272-1.136.6-2.265a68.746,68.746,0,0,1,10.882-1.03c3.953,0,7.723.587,8.808,2.643q.378.71.685,1.424a16.318,16.318,0,0,1,.061,13.284C587.61,411.454,589.847,422.966,589.847,422.966Z" transform="translate(-404.369 -267.531)"/><path class="v" d="M592.558,285.776s-7.9-8.633-1.92-7.994a3.82,3.82,0,0,0,2.881-.6,3.172,3.172,0,0,0,1.063-2.283,10.073,10.073,0,0,0-.509-3.673s8.05-6.865,6.4,1.761a15.879,15.879,0,0,0-.32,2.667c-.026,1.833.535,2.533,1.325,2.821,1.328.487,3.306-.2,4.206,1.373C607.317,282.738,592.558,285.776,592.558,285.776Z" transform="translate(-419.604 -188.376)"/><path class="w" d="M612.468,272.981a15.867,15.867,0,0,0-.32,2.667,5.529,5.529,0,0,1-.64.2,5.888,5.888,0,0,1-1.418.172,6.074,6.074,0,0,1-3.521-1.126,10.076,10.076,0,0,0-.509-3.673S614.106,264.348,612.468,272.981Z" transform="translate(-431.611 -188.37)"/><path class="v" d="M611.439,255.712a6.78,6.78,0,0,1-4.99,6.7,5.886,5.886,0,0,1-1.418.172,6.645,6.645,0,0,1-6.4-6.865v-.384a6.42,6.42,0,1,1,12.8.384Z" transform="translate(-426.559 -175.258)"/><path class="w" d="M592.558,302.125s-7.9-8.633-1.92-7.994a3.821,3.821,0,0,0,2.881-.6c-1.156,2.059-2.452,5.746,3.386,5.4,5.345-.316,5.252-2.6,4.59-4.1,1.328.487,3.306-.2,4.206,1.373C607.317,299.087,592.558,302.125,592.558,302.125Z" transform="translate(-419.604 -204.725)"/><path class="f" d="M595.529,393.869c-1.357,1.891-18.651-.59-21.179-1.414q.272-1.136.6-2.265a68.747,68.747,0,0,1,10.882-1.03c3.953,0,7.723.587,8.808,2.643q.378.711.685,1.424C595.41,393.784,595.529,393.869,595.529,393.869Z" transform="translate(-410.05 -267.531)"/><path class="y" d="M580.169,291.09s-10.063.879-10.511,5.035c-.429,3.975-1.715,14.948-1.715,14.948s-1.492,8.794,4.161,4.637l-.07.233a55.116,55.116,0,0,0-2.08,10.366,1.572,1.572,0,0,1-.381,1.071c-.746.48,19.976,3.676,21.467,1.6,0,0-.448-.319-.3-4a23.38,23.38,0,0,0-1.194-7.514,11.775,11.775,0,0,1,.448-7.514c1.642-3.676,1.043-4.805,1.043-4.805l5.665-4.637s1.223-2.248-1.015-5.025a7.567,7.567,0,0,0-5.323-2.815l-3.908-.3s4.283,4.939-3.77,5.42S580.169,291.09,580.169,291.09Z" transform="translate(-405.573 -203.123)"/><path class="w" d="M583.849,316.71s.3,2.557-.3,3.357-.742,4.462,0,6.714" transform="translate(-415.962 -219.949)"/><path class="f" d="M595.856,428.892c-2.292,2.245-3.841,10.17-4.606,15.3-1.088-7.143,3.421-18.964,3.421-18.964Z" transform="translate(-421.426 -291.22)"/><path class="f" d="M583.763,533.945c-3.726,4.318-6.26.958-6.26.958l-.5-2.567c1.411.786,3.79,1.4,6.209-1.215C583.465,532.569,583.763,533.945,583.763,533.945Z" transform="translate(-411.852 -360.764)"/><path class="f" d="M625.29,530.224c-.064,1.373-.086,2.4-.086,2.4-2.833,3.2-6.113,0-6.113,0s0-1.122.026-2.767A5.789,5.789,0,0,0,625.29,530.224Z" transform="translate(-440.471 -359.936)"/><rect class="z" width="10.137" height="4.476" rx="2.238" transform="translate(168.63 102.198)"/><rect class="w" width="10.137" height="4.476" rx="2.238" transform="translate(168.63 102.198)"/><rect class="j" width="10.137" height="4.476" rx="2.238" transform="translate(168.63 102.356)"/><ellipse class="aa" cx="0.448" cy="0.481" rx="0.448" ry="0.481" transform="translate(176.158 104.035)"/><path class="w" d="M574.13,342.742a3.041,3.041,0,0,1,1.687-1.9,2.711,2.711,0,0,0,1.443-1.373c.589-1.4,1.632-2.835,4.318-1.878s-.746,1.6-.746,1.6,6.11-.958,3.726.961a22.465,22.465,0,0,1-5.368,3.038l-1.466,1.665a2.1,2.1,0,0,1-3.278-.069A2.149,2.149,0,0,1,574.13,342.742Z" transform="translate(-409.814 -233.455)"/><path class="v" d="M573.683,341.775a3.028,3.028,0,0,1,1.683-1.9,2.724,2.724,0,0,0,1.447-1.394c.589-1.394,1.632-2.832,4.315-1.874s-.746,1.6-.746,1.6,6.113-.961,3.729.958a22.389,22.389,0,0,1-5.367,3.038l-1.469,1.668A2.1,2.1,0,0,1,574,343.8,2.179,2.179,0,0,1,573.683,341.775Z" transform="translate(-409.514 -232.812)"/><path class="w" d="M617.84,346.813l-1.043,2.719-1.338-1.054-3.732-2.945-2.535-1.771c-3.578-2.88,0-3.357,0-3.357-1.341-.642,0-1.28,0-1.28,4.772-1.119,3.876,3.038,3.876,3.038l3.021,1.682,1.005.556Z" transform="translate(-432.659 -234.544)"/><path class="v" d="M618.77,345.949l-1.043,2.715-1.338-1.054-3.732-2.942-2.535-1.757c-3.578-2.88,0-3.36,0-3.36-1.341-.638,0-1.277,0-1.277,4.772-1.119,3.876,3.038,3.876,3.038l3.021,1.678,1.005.559Z" transform="translate(-433.291 -233.985)"/><path class="w" d="M635.461,355.339l-1.044,2.715L633.08,357c1.21.048,2.637-.58.64-4.62l1.005.56Z" transform="translate(-449.983 -243.375)"/><path class="y" d="M639.065,313.91l.288,1.26-.883,9.292-.746,6.237s-.3,4.157-3.726,3.038-3.729-2.238-3.729-2.238,4.92,1.757,1.789-4.462c0,0,1.789.958,1.492-1.6a51.381,51.381,0,0,1,0-7.037Z" transform="translate(-448.072 -218.11)"/><path class="w" d="M611.439,255.692a6.78,6.78,0,0,1-4.99,6.7,3.7,3.7,0,0,1-.211-2c.3-1.308,1.709-2.262,1.552-3.6a.948.948,0,0,0-.141-.419c-.32-.443-.96-.223-1.466-.113a2.785,2.785,0,0,1-3.121-2.059,4.145,4.145,0,0,1-4.433,1.1,6.42,6.42,0,1,1,12.8.384Z" transform="translate(-426.559 -175.238)"/><path class="u" d="M597.456,245.538a2.782,2.782,0,0,0,3.118,2.059c.509-.11,1.152-.343,1.466.113a.91.91,0,0,1,.141.419c.157,1.335-1.248,2.289-1.549,3.594s.6,2.646.8,4.016a16.328,16.328,0,0,1,0,2.272,2.89,2.89,0,0,0,.691,2.083,1.188,1.188,0,0,0,1.844-.144c1.68.951,1.008,3.9,2.282,5.406a3.289,3.289,0,0,0,2.9.923,1.167,1.167,0,0,0,.682-.233,1.31,1.31,0,0,0,.32-.686,5.82,5.82,0,0,0-.128-3.233,3.617,3.617,0,0,1-.346-1.524,2.31,2.31,0,0,1,.519-1.088c.8-1.064,1.892-2.094,1.885-3.46s-1.114-2.4-1.527-3.683c-.563-1.747.218-3.621.538-5.437a10.848,10.848,0,0,0-2.029-8.392,2.72,2.72,0,0,0-1.184-.989,5.038,5.038,0,0,0-2.285.2c-2.529.343-4.833-2.035-7.362-1.823a1.275,1.275,0,0,0-.49.12,2.193,2.193,0,0,0-.711.875c-1.123,1.8-3.329,2.31-5.057,3.432C586.894,243.63,593.577,249.527,597.456,245.538Z" transform="translate(-420.786 -166.89)"/><path class="ab" d="M567.853,574.27c-1.741.831-4.049.247-4.353-1.14-.365,1.829,2.362,2.746,4.353,1.781,2.685-1.28,8.2-4.637,8.2-4.637v-.635C575.883,569.736,570.5,573.011,567.853,574.27Z" transform="translate(-402.651 -386.062)"/><path class="ab" d="M621.615,569.82c-.173,1.438-1.658,1.74-4.481,2.173-1.427.216-1.892-.46-1.978-1.263-.093,1.03.179,2.176,1.978,1.9,3.13-.481,4.622-.8,4.481-2.718A.9.9,0,0,0,621.615,569.82Z" transform="translate(-437.785 -386.18)"/><g class="b" transform="translate(169.342 69.099)"><path d="M609.7,274.886a3.293,3.293,0,0,1-2.9-.923c-1.28-1.51-.6-4.462-2.279-5.406a1.192,1.192,0,0,1-1.847.144,2.933,2.933,0,0,1-.691-2.083,17.933,17.933,0,0,0,0-2.272c-.2-1.373-1.111-2.67-.8-4.016s1.709-2.259,1.549-3.594a.876.876,0,0,0-.141-.419c-.32-.443-.96-.223-1.466-.113a2.782,2.782,0,0,1-3.118-2.059c-3.453,3.566-9.151-.769-6.721-4.054-3.8,3.312,2.436,8.5,6.12,4.7a2.782,2.782,0,0,0,3.117,2.059c.509-.11,1.152-.343,1.466.117a.885.885,0,0,1,.141.415c.157,1.335-1.248,2.289-1.549,3.594s.6,2.646.8,4.019a16.3,16.3,0,0,1,0,2.272,2.882,2.882,0,0,0,.691,2.08,1.188,1.188,0,0,0,1.844-.144c1.677.951,1.008,3.9,2.282,5.406a3.29,3.29,0,0,0,2.9.923,1.167,1.167,0,0,0,.682-.233,1.042,1.042,0,0,0,.275-.47A1.833,1.833,0,0,1,609.7,274.886Z" transform="translate(-590.105 -245.295)"/><path d="M611.736,236.371l.154-.251h-.038a2.216,2.216,0,0,0-.711.875c-.07.11-.144.22-.221.319A4.4,4.4,0,0,0,611.736,236.371Z" transform="translate(-604.258 -236.12)"/></g><path class="f" d="M587.836,367.15s-.384,1.442,2.151,2.08S587.836,367.15,587.836,367.15Z" transform="translate(-419.206 -253.075)"/><path class="f" d="M583.865,379.57s-1.28,1.013,1.828,2.773S583.865,379.57,583.865,379.57Z" transform="translate(-416.342 -261.232)"/><path class="f" d="M575.35,423.007s3.521-1.064,3.991-2.664S575.35,423.007,575.35,423.007Z" transform="translate(-410.731 -287.774)"/><path class="f" d="M575.35,487.79a5.656,5.656,0,0,0,2.471.686C578.781,488.363,575.35,487.79,575.35,487.79Z" transform="translate(-410.731 -332.306)"/><path class="f" d="M577,494.31a4.758,4.758,0,0,0,1.943.426C580.2,494.791,577,494.31,577,494.31Z" transform="translate(-411.852 -336.588)"/><ellipse class="a" cx="6.113" cy="0.899" rx="6.113" ry="0.899" transform="translate(241.465 224.96)"/><ellipse class="a" cx="6.113" cy="0.899" rx="6.113" ry="0.899" transform="translate(218.052 227.506)"/><ellipse class="a" cx="6.113" cy="0.899" rx="6.113" ry="0.899" transform="translate(190.475 224.06)"/><ellipse class="a" cx="4.347" cy="0.638" rx="4.347" ry="0.638" transform="translate(229.19 235.017)"/><ellipse class="a" cx="4.347" cy="0.638" rx="4.347" ry="0.638" transform="translate(204.891 234.378)"/><path class="c" d="M705.753,604.4s8.575-30.137-1.341-42.219c-7.416-9.031-15.834-7.949-19.6-6.831a7.1,7.1,0,0,0-4.481,4.006c-1.319,3.051-1.079,8,8.226,13.778C704.13,582.8,705.1,596.073,705.1,596.073Z" transform="translate(-481.713 -376.193)"/><path class="ac" d="M699.73,569.23S725,577.7,719.341,614" transform="translate(-495.3 -385.793)"/><path class="ac" d="M740.345,578.08s-3.479,2.513-2.375,6.292" transform="translate(-521.154 -391.605)"/><path class="ac" d="M707.65,581.882s2.128-2.32,4.718-1.03" transform="translate(-500.685 -393.169)"/><path class="ac" d="M738.86,617.131s3.735-2.032,4.7.515" transform="translate(-521.906 -416.747)"/><path class="ac" d="M761.675,630.912s-2.8-.237-2.855,1.2" transform="translate(-535.477 -426.293)"/><path class="c" d="M729.893,659.34s-10.041-21.906-12.8-21.425c-1.309.23-1.92,1.61-2.186,3a9.4,9.4,0,0,0,.563,5.331A22.6,22.6,0,0,0,729.893,659.34Z" transform="translate(-505.51 -430.897)"/><path class="ac" d="M722.32,650s10.537,16.39,12.572,17.107" transform="translate(-510.66 -438.839)"/><line class="ac" x2="2.461" transform="translate(210.687 213.736)"/><line class="ac" x2="3.854" y2="0.175" transform="translate(213.635 219.732)"/><line class="ac" x1="0.419" y2="2.156" transform="translate(215.562 214.933)"/><line class="ac" x1="0.074" y2="1.956" transform="translate(220.008 221.489)"/><path class="c" d="M761.14,659.34s10.037-21.906,12.8-21.425c1.309.23,1.92,1.61,2.186,3a9.4,9.4,0,0,1-.547,5.331A22.682,22.682,0,0,1,761.14,659.34Z" transform="translate(-537.055 -430.897)"/><path class="ac" d="M774.175,650s-10.527,16.4-12.576,17.121" transform="translate(-537.367 -438.839)"/><line class="ac" x1="2.458" transform="translate(235.316 213.736)"/><line class="ac" x1="3.857" y2="0.175" transform="translate(230.973 219.732)"/><line class="ac" x2="0.416" y2="2.156" transform="translate(232.484 214.933)"/><line class="ac" x2="0.074" y2="1.956" transform="translate(228.384 221.489)"/><path class="c" d="M706.011,709.584a1.863,1.863,0,0,1-.573-.923.849.849,0,0,1,.4-.944c.365-.151.759.124,1.056.4s.64.59,1.024.532a1.768,1.768,0,0,1-.483-1.569.686.686,0,0,1,.134-.319c.2-.233.573-.134.816.052a3.4,3.4,0,0,1,1,2.746,5.735,5.735,0,0,0,0-1.126,1.193,1.193,0,0,1,.394-.992,1.146,1.146,0,0,1,.6-.154,1.176,1.176,0,0,1,.96.3,1.089,1.089,0,0,1-.038,1.284,3.77,3.77,0,0,1-1.008.865,2.357,2.357,0,0,0-.72.738.821.821,0,0,0-.054.134h-2.157A6.187,6.187,0,0,1,706.011,709.584Z" transform="translate(-499.165 -476.026)"/><path class="c" d="M825.537,683.884a1.882,1.882,0,0,1-.57-.923.845.845,0,0,1,.4-.944c.365-.151.759.124,1.053.4s.64.59,1.027.532a1.749,1.749,0,0,1-.483-1.569.687.687,0,0,1,.134-.319c.2-.233.573-.134.816.052a3.385,3.385,0,0,1,1,2.729,5.513,5.513,0,0,0,0-1.126,1.175,1.175,0,0,1,.394-.992,1.147,1.147,0,0,1,.6-.154,1.181,1.181,0,0,1,.96.3,1.088,1.088,0,0,1-.038,1.284,3.817,3.817,0,0,1-1.008.865,2.316,2.316,0,0,0-.72.738.933.933,0,0,0-.054.13h-2.164A6.122,6.122,0,0,1,825.537,683.884Z" transform="translate(-580.436 -459.148)"/><path class="c" d="M785.732,709.584a1.888,1.888,0,0,1-.573-.923.849.849,0,0,1,.4-.944c.368-.151.759.124,1.056.4s.64.59,1.027.532a1.749,1.749,0,0,1-.483-1.569.652.652,0,0,1,.134-.319c.2-.233.57-.134.816.052a3.412,3.412,0,0,1,1,2.746,5.517,5.517,0,0,0,0-1.126,1.193,1.193,0,0,1,.394-.992,1.147,1.147,0,0,1,.6-.154,1.176,1.176,0,0,1,.96.3,1.088,1.088,0,0,1-.038,1.284,3.766,3.766,0,0,1-1.008.865,2.391,2.391,0,0,0-.72.738.81.81,0,0,0-.054.134h-2.183A6.2,6.2,0,0,1,785.732,709.584Z" transform="translate(-553.369 -476.026)"/><path class="c" d="M670.091,663.3s-.819,1.15.378,2.883,2.186,3.2,1.786,4.277c0,0-1.805-3.22-3.278-3.264S668.471,665.236,670.091,663.3Z" transform="translate(-473.896 -447.574)"/><path class="f" d="M670.1,663.3a1.485,1.485,0,0,0-.166.36c-1.434,1.805-2.2,3.494-.819,3.535,1.28.038,2.823,2.5,3.2,3.123a.452.452,0,0,1-.045.141c-.016.045-1.805-3.22-3.278-3.264S668.481,665.236,670.1,663.3Z" transform="translate(-473.906 -447.574)"/><path class="ad" d="M669.23,667.068a1.515,1.515,0,0,0,.1.734,1.558,1.558,0,0,0,.1-.734c0-.391-.054-.213-.106-.213S669.23,666.666,669.23,667.068Z" transform="translate(-474.562 -449.879)"/><path class="ad" d="M667.167,668.471c.32.192.621.309.64.261s-.224-.247-.557-.439-.2-.052-.224,0S666.837,668.268,667.167,668.471Z" transform="translate(-473.021 -450.788)"/><path class="c" d="M682.722,663.3s.819,1.15-.378,2.883-2.186,3.2-1.786,4.277c0,0,1.805-3.22,3.274-3.264S684.338,665.236,682.722,663.3Z" transform="translate(-482.203 -447.574)"/><path class="f" d="M682.8,663.3a1.488,1.488,0,0,1,.166.36c1.434,1.805,2.2,3.494.819,3.535-1.28.038-2.823,2.5-3.2,3.123a.449.449,0,0,0,.045.141c.016.045,1.805-3.22,3.274-3.264S684.421,665.236,682.8,663.3Z" transform="translate(-482.286 -447.574)"/><path class="ad" d="M691.859,667.068a1.535,1.535,0,0,1-.093.734,1.56,1.56,0,0,1-.1-.734c0-.391.054-.213.106-.213S691.859,666.666,691.859,667.068Z" transform="translate(-489.82 -449.879)"/><path class="ad" d="M692.538,668.471c-.32.192-.621.309-.64.261s.224-.247.554-.439.2-.052.227,0S692.867,668.268,692.538,668.471Z" transform="translate(-489.974 -450.788)"/><path class="ae" d="M673.348,681.188a7.926,7.926,0,0,1-2.98-.6c-.688-.525-3.521-1.157-3.694-.312s-3.441,4.2-.858,4.225,6.008-.429,6.7-.879S673.348,681.188,673.348,681.188Z" transform="translate(-471.569 -458.449)"/><path class="af" d="M665.773,686.741c2.586.021,6.008-.432,6.7-.882.525-.343.733-1.572.8-2.138h.077s-.144,1.981-.835,2.43-4.11.9-6.7.879c-.746,0-1-.288-.989-.711C664.935,686.562,665.219,686.734,665.773,686.741Z" transform="translate(-471.57 -460.985)"/><ellipse class="a" cx="11.113" cy="1.761" rx="11.113" ry="1.761" transform="translate(162.289 259.356)"/><ellipse class="a" cx="11.113" cy="1.761" rx="11.113" ry="1.761" transform="translate(189.194 275.163)"/><ellipse class="a" cx="7.358" cy="0.882" rx="7.358" ry="0.882" transform="translate(308.142 252.361)"/><ellipse class="a" cx="7.358" cy="0.882" rx="7.358" ry="0.882" transform="translate(277.265 260.235)"/><ellipse class="a" cx="7.358" cy="0.882" rx="7.358" ry="0.882" transform="translate(261.757 276.041)"/><ellipse class="a" cx="8.703" cy="1.603" rx="8.703" ry="1.603" transform="translate(84.474 281.811)"/><path class="c" d="M348.018,813.57s-12.115,6.714-5.854,14.622a2.371,2.371,0,0,0,2.292,1.6s-.339-.666.96-1.2a6.19,6.19,0,0,0,1.309-.745,3.3,3.3,0,0,0,1.171-1.682h0s2.477-3.556.557-10.136a7.068,7.068,0,0,0,.032-2.159l-1.472,2.166a4.413,4.413,0,0,1,1.7,2.7s-1.6-2.7-1.92-2.4c-.07.062-.733,1.184-.733,1.184s2.641,1.919,2.836,4.411c0,0-1.485-3.487-3.089-3.985l-.909,1.757s2.881,1.881,3.2,4.709c0,0-1.671-3.59-3.38-4.311l-.679,1.857s2.778,1.895,3.034,4.249c0,0-2.324-3.94-3.162-3.813a10.147,10.147,0,0,0-.451,2.279s1.962,1.407,2,2.791c0,0-1.812-2.454-2.09-2.293a10.969,10.969,0,0,0,.442,3.752,7.813,7.813,0,0,1-.8-3.752,4.174,4.174,0,0,0-1.162,2.008s-.522-1.373,1.2-2.605a10.117,10.117,0,0,1,.362-2.156,8.443,8.443,0,0,0-2.65,2.169s.291-1.781,2.81-2.667l.64-1.881a11.784,11.784,0,0,0-3.3,2.156s.56-1.771,3.5-2.619l.871-1.716a14.262,14.262,0,0,0-3.335,1.716,5.647,5.647,0,0,1,3.6-2.217l.707-1.085s-1.626.625-2.08.848-.544.113-.544.113a5.68,5.68,0,0,1,2.916-1.421A15.281,15.281,0,0,0,348.018,813.57Z" transform="translate(-250.959 -546.264)"/></g></svg>