<svg id="aea587a3-a3e8-4e0f-8220-a5d1e661ad74" data-name="Layer 1" xmlns="http://www.w3.org/2000/svg" width="959.28229" height="685.9554" viewBox="0 0 959.28229 685.9554"><title>stand_out</title><path d="M867.06253,418.09225c-1.79371-4.61268.76881-6.919,1.79389-11.01912S866.55,390.16,866.55,390.16s-10.76281-44.33285-14.09414-53.04564c-1.40974-3.687-4.47141-6.22337-7.53464-7.92661-.20773-1.131-.50785-1.86044-.92192-2.06752-2.96824-1.48525-10.36283-4.7098-15.29076-5.60131a25.0035,25.0035,0,0,0-3.25844-4.40639,10.416,10.416,0,0,0,1.161-5.39415c-.314-4.83476-3.97549-9.16717-3.49914-13.98862.36127-3.65663,3.03444-6.66045,4.06613-10.18708a11.97917,11.97917,0,0,0-1.36155-9.44679q1.13716,1.20964,2.27416,2.41925a8.49774,8.49774,0,0,0-.63407-10.26749c-2.4002-2.65152-6.414-3.646-8.27622-6.69951-1.9135-3.1377-.88651-7.40129-2.69606-10.60014-4.43279-7.83637-15.78112-2.28133-22.57836-5.01644-2.79331-1.124-4.91662-2.361-8.05936-2.27216a31.49047,31.49047,0,0,0-7.86147,1.46812,16.60916,16.60916,0,0,0-9.00972,6.4582,5.57887,5.57887,0,0,1,.70383-.67282c1.64714-1.29074,4.5357-1.18327,5.4055.72a3.18861,3.18861,0,0,1,.25375,1.52035c-.14292,2.29447-2.14724,4.00789-4.13885,5.15611s-4.23246,2.10887-5.53225,4.005c-2.14523,3.12917-.88381,7.32856-.88276,11.12246a16.124,16.124,0,0,1-6.11072,12.5203l7.231-2.9562a54.65,54.65,0,0,0-6.678,19.58333l9.777-8.07711a42.99171,42.99171,0,0,0-6.42136,19.0838l7.84772-8.04114a3.96845,3.96845,0,0,1,.51784,2.06429l-.81839,3.15644a20.50769,20.50769,0,0,1-.96019,1.83208c-1.26282,2.16846-2.56844,4.83755-1.3873,7.05159l.00557-.00295c-1.24316,4.18287-3.11856,8.36822-7.29073,10.40215,4.62765.48418,9.45737-1.82964,11.5471-5.51232a10.30975,10.30975,0,0,0,1.22759,1.86039c.13449.16819.26706.33512.39981.50223l-1.15322.76881-3.09046,2.06034s-20.24453,4.10014-18.96327,11.78793c.05272.31625.11587.69365.187,1.11707l-5.8247,9.902-8.45647,28.701s-4.35642,9.22537-3.58769,13.06924,0,5.38145,0,12.30043-3.33138,9.73786,0,15.37554,13.32542,22.03829,13.32542,22.03829l2.19525,1.64644a10.256,10.256,0,0,0,.11118,2.96624c2.05,10.25036,21.26952,108.39761,21.26952,108.39761s-9.7379,77.64649,9.994,82.5154c2.47484.61066,4.90514,1.16474,7.266,1.658l2.98442,19.61151-1.79389,24.85713s-13.58169,30.75107,11.27543,32.54492,13.5817-26.651,13.5817-26.651a13.51031,13.51031,0,0,0,1.53761-7.944c-.25348-2.28125-2.38724-14.152-4.47958-25.56935,9.43335-1.13117,7.66826-11.14274,6.41126-15.54465a2.54913,2.54913,0,0,0,1.14339-1.425c.28393-1.02225-.37719-5.04349-1.57677-10.67878-.97706-5.602-2.64673-14.67092-3.78576-20.81422l6.13134.99816,25.8822-151.70538s.17068-2.41508.09273-5.94732a96.0791,96.0791,0,0,1,10.92635-4.81558c8.45656-3.33138,11.78789-15.63181,14.60677-20.757S868.85642,422.70493,867.06253,418.09225Zm-91.8956-96.59119a5.48186,5.48186,0,0,1,2.83489-.96149c-.219,1.19193-2.26894,1.54023-3.98784,2.16442A5.07424,5.07424,0,0,1,775.16693,321.50106Zm-12.91431,76.3467c2.07617,3.41093-1.68281,12.6537-5.07016,19.98853-1.94125-1.67263-3.967-1.14526-1.5926-5.89425a24.10832,24.10832,0,0,0,2.8188-9.73786c0-.586.30046-4.89123,2.8254-6.67972A13.48411,13.48411,0,0,0,762.25262,397.84776Zm-7.77726,29.43893c1.17487-.47822,2.954-1.2128,5.3567-2.02984-1.15113,1.51082-2.46536,3.31084-3.78716,5.27575A3.96917,3.96917,0,0,1,754.47536,427.28669Zm83.11736,3.36226c-1.558-1.65536-2.81688-3.136-3.85326-4.46084q2.89934.76307,5.90342,1.642a7.02461,7.02461,0,0,0,2.98581-.19894c.08891,1.77153.08926,4.29909.08926,4.29909l-2.80679,1.94312A16.4625,16.4625,0,0,0,837.59272,430.649Zm7.95254-8.88737c-.02992.026-.06211.056-.0929.08334a16.99686,16.99686,0,0,0-.68434-2.9839c-1.67941-5.29664-2.57679-14.69424-3.05428-22.71389l4.84808,16.3074S846.81809,420.65482,845.54526,421.76158Z" transform="translate(-120.35886 -107.0223)" fill="#d0cde1"/><path d="M746.00285,354.4058s-26.29048-45.18676-27.11206-50.11622S704.924,290.32276,704.924,290.32276c-4.4913-4.49129-11.86012-5.91241-19.61536-5.83849,2.92045-2.416-7.50653-4.04009-8.31827-5.66359-.82158-1.64316-3.28631-1.64316-6.57262-4.10789-3.28611-2.46458-11.4889-.411-11.4898-.41079a30.275,30.275,0,0,1-2.54863-8.188,22.90678,22.90678,0,0,0,5.41186-14.81612c0-.059-.004-.117-.00446-.17591.2091.32549.41826.65294.62757.99036,1.53895-9.21888,4.25571-16.8819-.92217-25.29164a28.35654,28.35654,0,0,0-16.13028-12.33123l-4.93167,3.94532,1.91735-4.60177a26.10421,26.10421,0,0,0-4.87431-.28171l-4.43724,5.70506,1.83652-5.50965a28.08546,28.08546,0,0,0-19.37467,11.5246c-5.64754,8.14322-5.26955,19.46282.285,27.66972.0187-.05747.03344-.11373.05185-.1711a22.9969,22.9969,0,0,0,11.754,18.62154l1.39524,11.16225v0a7.65112,7.65112,0,0,1-4.57449,2.01809c-2.46473,0-4.92946,6.57262-4.92946,6.57262s-1.3969.705-2.9025,4.03282c-3.87843,2.64034-15.70886,10.93424-20.09811,16.73-2.59652,1.2778-5.38569,4.11987-4.933,10.45716.82158,11.50209,0,64.90462,0,64.90462s-7.39419,45.18676-4.92946,48.47307-.82158,13.96681-.82158,13.96681l2.46473.54774v2.73857s-7.4134,34.36585,4.10789,32.8631c18.89628-2.46473,4.92946-30.39836,4.92946-30.39836v-3.19505l3.28631.73031s1.64316-11.50208,4.92947-12.32366c1.14306-.28577,2.48469-3.35676,3.74875-7.23814.73708,6.05527,1.18071,9.70287,1.18071,9.70287l5.14073-1.1424,1.43189,5.25029a7.08643,7.08643,0,0,0,1.1041.50015l-1.1041,6.07247s-.82157,6.57262,0,10.68051c.41435,2.07169,15.66488,46.35348,30.68184,89.74354l-.28347,10.4889s-7.3942,8.21578-5.751,13.96682-4.10789,53.40253-4.10789,53.40253l-4.92947,23.82575,1.24034.38165-1.13859,4.17483a8.28506,8.28506,0,0,0-2.56648,2.01614c-6.57262,7.39419-14.78839,28.75521-14.78839,28.75521s-14.7884,22.18259,8.21577,21.361,24.64733-9.03735,24.64733-9.03735,3.2863-21.361,3.2863-22.18259-1.64315-9.267-1.64315-9.267l-.6381-.70378.44559-10.24866,4.3004,1.32318s4.10788-21.361,7.39419-23.82575c1.14853-.86139,4.20432-10.457,7.69312-22.782,3.56606,10.268,7.01956,45.77245,8.1401,48.99508a11.66829,11.66829,0,0,0-1.04482,1.72057,199.63573,199.63573,0,0,1-12.32366,20.53944s-26.29048,15.61,0,19.71786c0,0,14.78839.82158,22.18259-4.10789s27.11205-12.32366,27.11205-13.96681-4.92946-25.79756-9.85893-23.1685h0l-3.30215-7.59478,3.30215-1.27824-20.80019-93.36382a47.14063,47.14063,0,0,0,1.08233-6.04705c0-4.3023,10.63809-88.07723,13.34522-109.32591,11.91428,3.37546,22.80419-21.3049,22.80419-21.3049l2.70082-4.86152,3.8718,2.39678s3.28631-8.21577,8.21577-9.03735,13.96682-44.36518,13.96682-50.11622A26.74193,26.74193,0,0,0,746.00285,354.4058ZM707.724,418.77552a22.13835,22.13835,0,0,0-2.8-3.573,101.74878,101.74878,0,0,0,4.92946-17.25312c1.64316-9.03736-2.46473-38.61414-2.46473-38.61414l-.07181-2.00867c4.03237,5.29342,9.10916,12.35064,9.10916,14.33233a6.16182,6.16182,0,0,0,2.46473,4.92946l-4.92946,17.25313s-3.28631,8.21577-4.10789,12.32366a41.936,41.936,0,0,0-.82158,7.3942l1.16457.72088Z" transform="translate(-120.35886 -107.0223)" fill="#d0cde1"/><path d="M369.88115,369.61259l4.384-.98641-18.0747-50.9378-39.02493-14.3776s-.14948.16573-.42543.45145c-3.32873-3.22152-4.74162-7.89614-5.33178-11.57574A22.997,22.997,0,0,0,322.13,258.4125c3.21575-.77188,4.36387-3.68917,5.44315-7.16789a14.3931,14.3931,0,0,0-2.03955-.44408q.75864-1.701,1.51719-3.402-1.33317-.11974-2.66632-.23944.34089-1.5901.68172-3.18025-1.70015,1.17369-3.40024,2.34734a6.94616,6.94616,0,0,0-1.1579-6.63164,13.26745,13.26745,0,0,0-5.68685-4.0099,25.37252,25.37252,0,0,0-26.03635,4.55051l-.24566-.95742a33.04449,33.04449,0,0,0-12.62057,21.87054c-1.08815,8.57351,3.03047,17.30322,8.38386,24.0878-.04508-.29615-.09342-.59156-.14256-.88661q.347.47823.71688.93811l.65805,25.00662-1.64817,1.41268c-.00261.00116-27.65272,12.51066-28.73054,27.45209l-.00316.01088c-1.65965,7.27375-2.48123,45.06631-2.48123,45.06631h2.27514l-2.27514,14.7884L237.88333,456.535s-18.89628,24.64732-2.46473,29.57679c10.21064,3.06321,13.12387-8.78342,13.86672-18.19325.59157,2.3324,2.36094,3.90916,5.85114,4.22643.27469.025.56794.04573.85161.06875-7.76933,20.07815-2.49477,85.3753-2.49477,85.3753-4.10789,8.21578,44.36518,64.90462,44.36518,64.90462l2.91875-1.55666.63163,1.26316c-1.62436.15575-2.7288.2935-2.7288.2935v25.4689s-7.3942,25.4689,2.46473,30.39836c2.55108,1.27554,5.21188.34761,7.75524-1.72429-.48605,7.8598-1.18262,19.58879-1.18262,22.26373,0,4.10789,10.68051,11.50208,10.68051,11.50208s2.46473,9.03736,22.18259,9.03736S345.51,695.614,345.51,695.614l-10.6805-23.82575s-.79912.39084-3.21757-1.57786l.86616-9.52757,4.81614.42493,6.57262-96.12456s5.751-85.44405,6.57262-98.58929a91.48467,91.48467,0,0,0-.29711-12.63782L374.26518,403.954Zm-17.79856,31.87669-2.46473,8.58921V391.08262ZM249.51444,462.41639c.02041-3.01086-.129-5.05984-.129-5.05984l16.06183-32.12366-.45186,9.94107S252.13191,451.44554,249.51444,462.41639ZM287.178,555.12426l15.61-55.04569,9.03735,66.54777-.648,24.19326a38.572,38.572,0,0,1-2.63828-6.94013C306.07426,574.02054,287.178,555.12426,287.178,555.12426Z" transform="translate(-120.35886 -107.0223)" fill="#d0cde1"/><path d="M509.50781,685.88353c-7.6979-3.1697-22.64079-9.962-24.45222-13.5845-1.81118-3.62249-10.86748-31.69714-10.86748-31.69714l-2.33222.16961c-.30066-12.75381-1.58473-62.18277-3.55437-68.092,0,0,9.50909-78.33723-9.50921-109.58151l-3.42665-13.84356c1.12457-5.5496.98038-18.40039.257-20.57048-.90571-2.7169,10.4148-11.32046,7.24511-16.75426s-11.77319-23.99924-11.77319-23.99924.90559-11.77325-11.32052-22.64079c0,0-3.57283-20.22688-19.67266-20.52824-2.17646-3.79841-5.223-9.83814-4.32663-12.52735.95981-2.87926,4.62963-11.85557,6.70233-16.87981a21.695,21.695,0,0,0,3.16116-1.75924c12.80441-5.737,21.83067-19.52818,21.83067-35.639,0-17.24643-10.34014-31.842-24.58975-36.73622a12.22024,12.22024,0,1,0-23.64582-4.38524,12.20966,12.20966,0,0,1,11.26582-16.9557,12.27159,12.27159,0,0,1,2.36366.23306,12.21507,12.21507,0,0,0-13.08729,20.39731,12.11628,12.11628,0,0,0,.49895,1.31358c-13.4084,5.41066-22.97312,19.546-22.97312,36.13321,0,15.38622,8.23191,28.65832,20.12535,34.81881-.06334,5.005-1.30464,13.443-8.207,18.58542-3.56559-1.62919-8.51364-3.41742-11.6886-2.6063-1.64175-1.27981-4.11946-1.70234-7.49072,1.66887-6.79219,6.79225-12.6789,24.45209-12.6789,35.31969s1.3585,73.809,1.3585,73.809-7.2451,2.7169-2.2641,6.79225a5.87263,5.87263,0,0,0,3.65825,1.35945l4.94525,36.67715s-3.1697,35.31969,9.05641,35.77249a4.83715,4.83715,0,0,0,2.73664-.67178l-9.07615,40.97241s-20.82949,13.5845-37.13088,40.30064c-8.39621,13.76053-12.58227,22.22579-14.6732,27.20942l-2.98671-1.85167-10.41468,19.92389s-23.09371,14.03735-18.11271,24.45209,9.50921,13.1317,9.50921,13.1317l3.1697-1.35845,5.88648,10.8676s15.3958,22.188,40.30069,10.86754a9.10148,9.10148,0,0,0,0-10.86754c-4.07529-5.88665-14.49009-18.5655-14.49009-18.5655l6.79219-34.414-1.40548-.87141,43.06468-52.10807s12.67879-7.6979,17.207-14.49015,32.6028-76.97878,32.6028-76.97878l15.84848,73.35623s-.90559,26.7162,3.1697,43.92319a186.43145,186.43145,0,0,1,4.33213,29.34855l-1.16232.08454,2.7169,20.37675s-11.77319,28.98024-3.62261,31.24429a119.40682,119.40682,0,0,0,17.6599,3.16975l.9056-3.16975s34.8669,19.01829,47.54568,4.981C514.48869,699.01523,517.20571,689.05328,509.50781,685.88353ZM385.436,463.55074c1.35851,1.35845.90572,7.69785.90572,7.69785l-2.7169,17.65984-2.7134,12.24907a131.573,131.573,0,0,0-2.26761-17.23l-1.25345-33.84282a2.61532,2.61532,0,0,0,.80066.33437c.90559,0,.45279-7.69784.45279-7.69784s.52852-1.37475,1.188-3.54432c1.76047,5.27,3.90959,8.7086,6.50988,9.43092l.45279,5.88659s-5.88659,2.7169-.45279,2.7169a4.277,4.277,0,0,0,.93328-.13864l-.48049,2.40274S384.07763,462.19229,385.436,463.55074Z" transform="translate(-120.35886 -107.0223)" fill="#d0cde1"/><ellipse cx="381.40899" cy="593.9554" rx="364" ry="6" fill="#3f3d56"/><ellipse cx="508.80675" cy="609.4554" rx="400.39775" ry="15.5" fill="#3f3d56"/><ellipse cx="434.90899" cy="632.4554" rx="196.5" ry="15.5" fill="#3f3d56"/><ellipse cx="718.90899" cy="650.9554" rx="87.5" ry="8" fill="#3f3d56"/><ellipse cx="598.90899" cy="677.9554" rx="41.5" ry="8" fill="#3f3d56"/><ellipse cx="260.90899" cy="643.9554" rx="41.5" ry="8" fill="#3f3d56"/><polygon points="465.909 553.455 469.909 581.455 489.909 579.455 487.909 550.455 465.909 553.455" fill="#ffb8b8"/><polygon points="370.909 553.455 366.909 581.455 346.909 579.455 348.909 550.455 370.909 553.455" fill="#ffb8b8"/><path d="M462.26785,370.4777s-18,21-14,54,11,108,11,108l5,133,32-2,5-113,16-91,43,106s21,99,22,99,30-3,30-3l-14-117s-22-170-35-173S462.26785,370.4777,462.26785,370.4777Z" transform="translate(-120.35886 -107.0223)" fill="#2f2e41"/><path d="M612.26785,682.4777s-18-12-25,2-1,24-1,24,6,4,3,8-4,30,22,26,13-31,13-31Z" transform="translate(-120.35886 -107.0223)" fill="#2f2e41"/><path d="M465.26785,682.4777s18-12,25,2,1,24,1,24-6,4-3,8,4,30-22,26-13-31-13-31Z" transform="translate(-120.35886 -107.0223)" fill="#2f2e41"/><path d="M486.76785,175.9777s9,25,2,39,11,30,11,30,47-24,41-36-16-28-14-38Z" transform="translate(-120.35886 -107.0223)" fill="#ffb8b8"/><circle cx="383.90899" cy="46.4554" r="32" fill="#ffb8b8"/><path d="M481.26785,213.4777s32.108,26.71833,56.054-11.14083l24.946,14.14083,13,152s-73,42-108,6l5-141Z" transform="translate(-120.35886 -107.0223)" fill="#d0cde1"/><polygon points="370.992 91.488 325.909 121.455 341.909 195.455 320.909 310.455 354.909 259.455 370.992 91.488" fill="#575a89"/><path d="M531.1951,190.16924l11.07275,7.30846,45,16-7,124,19,80-27,14s-5-38-36-57S524.12235,195.86078,531.1951,190.16924Z" transform="translate(-120.35886 -107.0223)" fill="#575a89"/><path d="M456.26785,384.4777l13,9s-16.5,17.5-19.5,14.5a8.19972,8.19972,0,0,1-2.5-6.5l-3-7Z" transform="translate(-120.35886 -107.0223)" fill="#ffb8b8"/><path d="M542.6875,382.53227l-4.41965,6.94543s-13,6-10,10,28,13,33,4l5-9Z" transform="translate(-120.35886 -107.0223)" fill="#ffb8b8"/><path d="M452.26785,227.4777l-7,1-11.5,74.5s-4.5,13.5.5,45.5,9.95137,52.83775,9.95137,52.83775l22.04863-15.83775-10-26,13-95Z" transform="translate(-120.35886 -107.0223)" fill="#575a89"/><path d="M571.26785,211.4777l16,2s18,19,21,39,2,77,2,77l-46,73-25-18,35-62-17-74Z" transform="translate(-120.35886 -107.0223)" fill="#575a89"/><path d="M534.7832,124.53543a37.38374,37.38374,0,0,0-21.26531-16.25685l-6.50165,5.2013,2.52773-6.06673a34.41439,34.41439,0,0,0-6.426-.3714l-5.84983,7.52125,2.42117-7.26362a37.02632,37.02632,0,0,0-25.54254,15.19343c-7.44543,10.73558-8.70175,25.66535-1.37889,36.48489,2.01023-6.17759,4.45-11.97424,6.46026-18.1519a18.28485,18.28485,0,0,0,4.763.0232l2.44576-5.70663.68317,5.46527c7.58041-.66049,18.82405-2.11039,26.01059-3.43891l-.69877-4.19261,4.18084,3.48406c2.20182-.50692,3.50905-.96651,3.401-1.31781,5.34476,8.61641,10.64059,14.11989,15.98521,22.73623C538.02782,145.72492,541.60945,135.62239,534.7832,124.53543Z" transform="translate(-120.35886 -107.0223)" fill="#2f2e41"/><ellipse cx="412.65237" cy="45.45007" rx="2.16625" ry="4.3325" fill="#ffb8b8"/><path d="M879.13574,718.05792c.92164,31.55822-17.51768,43.1236-40.65849,43.79941q-.80628.02355-1.60531.02887-1.60971.01227-3.18816-.05361c-20.92855-.86883-37.49471-11.97817-38.35183-41.32724-.887-30.37265,36.812-69.836,39.64042-72.75513l.005-.00273c.10745-.11124.16248-.16689.16248-.16689S878.21418,686.50226,879.13574,718.05792Z" transform="translate(-120.35886 -107.0223)" fill="#6c63ff"/><path d="M836.8112,757.07465l14.69985-21.86015-14.66978,24.21188.03067,2.45982q-1.60971.01227-3.18816-.05361l.72907-31.61931-.02-.24393.0269-.04713.06978-2.98784L818.3915,703.56186l16.07907,21.1363.05706.63154.55069-23.88963-13.90439-24.23194,13.944,20.03523-.14555-49.49314.00031-.16473.00473.162.923,39.00726L848.57261,670.91l-12.6307,19.20516.27657,21.36871,11.661-20.85506-11.61817,23.99662.154,11.88208,16.95828-29.05084-16.90673,33.196Z" transform="translate(-120.35886 -107.0223)" fill="#3f3d56"/><path d="M343.13574,671.05792c.92164,31.55822-17.51768,43.1236-40.65849,43.79941q-.80628.02355-1.60531.02887-1.60971.01227-3.18816-.05361c-20.92855-.86883-37.49471-11.97817-38.35183-41.32724-.887-30.37265,36.812-69.836,39.64042-72.75513l.005-.00273c.10745-.11124.16248-.16689.16248-.16689S342.21418,639.50226,343.13574,671.05792Z" transform="translate(-120.35886 -107.0223)" fill="#6c63ff"/><path d="M300.8112,710.07465l14.69985-21.86015-14.66978,24.21188.03067,2.45982q-1.60971.01227-3.18816-.05361l.72907-31.61931-.02-.24393.0269-.04713.06978-2.98784L282.3915,656.56186l16.07907,21.1363.05706.63154.55069-23.88963-13.90439-24.23194,13.944,20.03523-.14555-49.49314.00031-.16473.00473.162.923,39.00726L312.57261,623.91l-12.6307,19.20516.27657,21.36871,11.661-20.85506-11.61817,23.99662.154,11.88208,16.95828-29.05084-16.90673,33.196Z" transform="translate(-120.35886 -107.0223)" fill="#3f3d56"/><path d="M743.6536,762.54861c.541,18.52392-10.28246,25.31253-23.86556,25.70921q-.47326.01383-.94228.01694-.94487.00722-1.87138-.03146c-12.28455-.51-22.00849-7.0309-22.5116-24.2581-.52065-17.828,21.60774-40.99207,23.268-42.70552l.003-.0016c.06307-.0653.09537-.098.09537-.098S743.11267,744.0262,743.6536,762.54861Z" transform="translate(-120.35886 -107.0223)" fill="#6c63ff"/><path d="M718.81011,785.4505l8.62846-12.83138-8.61081,14.21179.018,1.44385q-.94487.00722-1.87138-.03146l.428-18.55978-.01173-.14318.01579-.02767.041-1.75378-9.44918-13.71911,9.438,12.4065.0335.37069.32324-14.02263-8.16155-14.22358,8.18479,11.7602-.08543-29.05128.00018-.0967.00278.0951.54178,22.89632,7.43827-9.3005-7.41392,11.273.16235,12.54292,6.84474-12.24142-6.81959,14.08545.09037,6.97449,9.9541-17.05215L718.608,769.94142Z" transform="translate(-120.35886 -107.0223)" fill="#3f3d56"/><path d="M1079.55337,158.20933c.02869-.09119.059-.18353.08777-.275-.01245.0401-.02807.07867-.04028.11889Z" transform="translate(-120.35886 -107.0223)" fill="#2f2e41"/><path d="M939.81067,688.83054l74.06791-110.14639-73.91642,121.996.15457,12.39423q-8.11089.06186-16.06418-.27012l3.6736-159.31974-.10065-1.22909.13555-.23748.35161-15.05474L846.99957,419.19646,928.017,525.69561l.2875,3.18211,2.77475-120.37228L861.01936,286.40828l70.25938,100.95121-.73336-249.38034.00156-.83.02384.8163,4.65074,196.54526L999.0727,254.6739l-63.64214,96.76873,1.39359,107.67021,58.75621-105.082L937.04009,474.94221l.77575,59.87005,85.44741-146.378L938.07561,555.69837Z" transform="translate(-120.35886 -107.0223)" fill="#3f3d56"/><path d="M183.51413,684.56084l50.40107-74.95143-50.298,83.01477.10518,8.43391q-5.51922.04209-10.93121-.18381L175.291,592.46181l-.06849-.83636.09224-.1616.23926-10.24432-55.19511-80.13689,55.13,72.4696.19564,2.16533,1.88813-81.90986-47.67371-83.08359,47.80948,68.69439-.499-169.69612.00107-.56481.01622.55547,3.16469,133.74338,43.44889-54.32663-43.30664,65.84832.94829,73.26647,39.98191-71.5053-39.835,82.27672.52788,40.73985,58.14448-99.606L182.33347,593.96825Z" transform="translate(-120.35886 -107.0223)" fill="#3f3d56"/></svg>