<svg id="b665ac0c-e2fc-4bb5-9b25-39c3bd142587" data-name="Layer 1" xmlns="http://www.w3.org/2000/svg" width="1061" height="530.89248" viewBox="0 0 1061 530.89248"><title>online_ad</title><path d="M898.29279,284.28077H638.12319v-5.36232h-117.971v5.36232H258.91011a17.5985,17.5985,0,0,0-17.59852,17.59851V658.13147A17.59856,17.59856,0,0,0,258.91011,675.73H898.29279a17.59855,17.59855,0,0,0,17.59851-17.59857V301.87928A17.5985,17.5985,0,0,0,898.29279,284.28077Z" transform="translate(-69.5 -184.55376)" fill="#3f3d56"/><rect x="195.4058" y="130.82846" width="627.3913" height="353.91304" opacity="0.1"/><circle cx="508.56522" cy="114.7415" r="6.43478" fill="#6c63ff"/><path d="M933.50709,662.86046H872.27778v-4.41154a.87468.87468,0,0,0-.87471-.8747h-20.9929a.87468.87468,0,0,0-.87471.8747v4.41154H836.41489v-4.41154a.87468.87468,0,0,0-.8747-.8747H814.54728a.87468.87468,0,0,0-.8747.8747v4.41154H800.552v-4.41154a.87468.87468,0,0,0-.87471-.8747H778.6844a.87468.87468,0,0,0-.87471.8747v4.41154H764.68913v-4.41154a.87468.87468,0,0,0-.87471-.8747H742.82151a.87468.87468,0,0,0-.8747.8747v4.41154H728.82624v-4.41154a.87468.87468,0,0,0-.8747-.8747H706.95863a.87468.87468,0,0,0-.87471.8747v4.41154H692.96336v-4.41154a.87468.87468,0,0,0-.87471-.8747H671.09574a.87468.87468,0,0,0-.8747.8747v4.41154H657.10047v-4.41154a.87468.87468,0,0,0-.8747-.8747H491.78132a.87468.87468,0,0,0-.8747.8747v4.41154H477.78605v-4.41154a.87468.87468,0,0,0-.8747-.8747H455.91844a.87467.87467,0,0,0-.8747.8747v4.41154H441.92317v-4.41154a.87468.87468,0,0,0-.87471-.8747h-20.9929a.87468.87468,0,0,0-.87471.8747v4.41154H406.06028v-4.41154a.87468.87468,0,0,0-.8747-.8747H384.19267a.87468.87468,0,0,0-.8747.8747v4.41154H370.1974v-4.41154a.87468.87468,0,0,0-.8747-.8747H348.32979a.87468.87468,0,0,0-.87471.8747v4.41154H334.33452v-4.41154a.87468.87468,0,0,0-.87471-.8747H312.4669a.87468.87468,0,0,0-.8747.8747v4.41154H298.47163v-4.41154a.87468.87468,0,0,0-.8747-.8747H276.604a.87468.87468,0,0,0-.87471.8747v4.41154h-40.2364A20.99292,20.99292,0,0,0,214.5,683.85337v9.49249a20.99292,20.99292,0,0,0,20.99291,20.99286H933.50709A20.99292,20.99292,0,0,0,954.5,693.34586v-9.49249A20.99292,20.99292,0,0,0,933.50709,662.86046Z" transform="translate(-69.5 -184.55376)" fill="#3f3d56"/><rect x="382.20909" y="171" width="254" height="267" fill="#6c63ff"/><path d="M586.05009,344.46962s-21.6583-7.7351-35.58149,23.20532-35.58149,64.97489-35.58149,64.97489l12.37617,3.094s3.094-21.6583,10.82915-24.75234l-3.094,27.84638s92.82127,32.48745,134.59085-3.094l-1.547-10.82915s6.18808,1.547,6.18808,10.82915l4.64106-4.64107s-4.64106-9.28212-18.56425-21.65829c-9.13857-8.12318-12.279-23.57744-13.35817-33.23968a40.224,40.224,0,0,0-9.26065-21.90479C628.43561,343.57674,611.57594,332.1794,586.05009,344.46962Z" transform="translate(-69.5 -184.55376)" fill="#2f2e41"/><path d="M466.37136,373.66062l-9-94s-18-51,9-47,11,43,11,43l15,98Z" transform="translate(-69.5 -184.55376)" fill="#ffb9b9"/><circle cx="527.87136" cy="223.10686" r="36" fill="#ffb9b9"/><path d="M571.37136,423.66062s-2,41-12,44-38,36-25,46,88,3,88,3l-7-52s-16-11-3-30Z" transform="translate(-69.5 -184.55376)" fill="#ffb9b9"/><path d="M646.43907,624.55376H505.03916c.51-9.05,1.79-21.83,3.42994-35.88.5-4.26,1.03-8.65,1.58007-13.08,4.84986-39.05,11.31983-81.93,11.31983-81.93l1.69995-3.93,17.30005-40.07.18017.07,22.81983,8.93.81006,3.84,6.18994,29.16,40.05-32.33,36.95-5.78,2.5-.39,4.5,42.5s-.2,9.5-.40991,23.03c-.24,15.55-.5,36.43-.48,54.32.01,8.55.08007,16.42.25,22.7.13989,5.29.35009,9.46.63989,11.95C655.03916,613.33373,651.47911,619.22374,646.43907,624.55376Z" transform="translate(-69.5 -184.55376)" fill="#3f3d56"/><polygon points="471.871 270.107 470.871 264.107 442.871 230.107 426.871 173.107 387.871 188.107 415.871 257.107 455.871 308.107 471.871 270.107" fill="#3f3d56"/><path d="M550.07682,411.966s12.37617-17.01723,23.20532-20.11128,12.37617-18.56425,12.37617-18.56425,27.84638,30.94042,44.86362,32.48744,1.547-37.12851,1.547-37.12851l-30.94043-7.7351-29.3934,3.094L548.5298,379.47851Z" transform="translate(-69.5 -184.55376)" fill="#2f2e41"/><path d="M649.70909,590.55376l-95.67237,3.79481s-52.71966,12.068-45.66742-14.29988,43.97375-6.02576,43.97375-6.02576l99.07116-3.729Z" transform="translate(-69.5 -184.55376)" fill="#ffb9b9"/><path d="M638.87136,460.16062l9-7s15-8,18,20,25,121,3,122-78,2-78,2l6-31,46-3Z" transform="translate(-69.5 -184.55376)" fill="#3f3d56"/><polygon points="572.371 318.607 569.371 375.607 525.371 384.607 565.371 368.607 572.371 318.607" opacity="0.15"/><rect x="286.9004" width="244" height="64" fill="#6c63ff"/><rect y="528.89248" width="1061" height="2" fill="#3f3d56"/><path d="M1027.45708,643.58233c14.376,15.42642,15.119,38.1,15.119,38.1s-22.56495-2.33763-36.94091-17.764-15.119-38.1-15.119-38.1S1013.08112,628.15591,1027.45708,643.58233Z" transform="translate(-69.5 -184.55376)" fill="#6c63ff"/><path d="M1072.7141,667.66123c-15.42642,14.37595-38.1,15.119-38.1,15.119s2.33763-22.56495,17.764-36.94091,38.1-15.119,38.1-15.119S1088.14052,653.28527,1072.7141,667.66123Z" transform="translate(-69.5 -184.55376)" fill="#6c63ff"/><path d="M1068.88014,713.44624H1012.141a5.8034,5.8034,0,0,1-5.21862-3.26461l-12.35345-25.3932a5.8034,5.8034,0,0,1,5.21862-8.34219h81.446a5.8034,5.8034,0,0,1,5.21862,8.34219l-12.35345,25.3932A5.80339,5.80339,0,0,1,1068.88014,713.44624Z" transform="translate(-69.5 -184.55376)" fill="#3f3d56"/><path d="M130.45708,643.58233c14.376,15.42642,15.119,38.1,15.119,38.1s-22.56495-2.33763-36.94091-17.764-15.119-38.1-15.119-38.1S116.08112,628.15591,130.45708,643.58233Z" transform="translate(-69.5 -184.55376)" fill="#6c63ff"/><path d="M162.88014,713.44624H106.141a5.8034,5.8034,0,0,1-5.21862-3.26461l-12.35345-25.3932a5.8034,5.8034,0,0,1,5.21862-8.34219h81.446a5.8034,5.8034,0,0,1,5.21862,8.34219l-12.35345,25.3932A5.80339,5.80339,0,0,1,162.88014,713.44624Z" transform="translate(-69.5 -184.55376)" fill="#3f3d56"/><rect x="317.9004" y="25.72312" width="182" height="12.55376" fill="#fff"/></svg>