<svg xmlns="http://www.w3.org/2000/svg" width="120.775" height="134.688" viewBox="0 0 120.775 134.688"><defs><style>.a{fill:#3a3768;}</style></defs><g transform="translate(-14.697 337.897)"><path class="a" d="M61.518-337.114a55.26,55.26,0,0,0-13.156,4.13c-7.7,3.593-12.425,6.9-17.756,12.389a55.971,55.971,0,0,0,1.677,79.824c9.158,8.713,18.659,13.338,32.331,15.816.946.206.9.289-.946,2.271a15.571,15.571,0,0,0-2.795,4.336c-1.419,3.551-1.075,5.657.645,3.84,1.247-1.321,7.439-3.828,7.739-3.84s7.322-2.583,13.242.626,14.962,15.809,27.645,14.405c6.363-.7,10.361-2.189,13.8-5.162,2.623-2.271,3.568-3.8,3.439-5.534l-.086-1.2-1.763,1.4c-3.955,3.1-9.673,4.708-16.767,4.708-10.963,0-19.378-7.083-20.637-9.58S82.5-225.2,82.5-225.2l1.5-.372c.86-.206,2.709-.619,4.127-.867A78.074,78.074,0,0,0,98.449-228.8c18.4-5.492,32.159-19.946,36.2-38.116.989-4.377,1.118-17.1.215-20.648a57.517,57.517,0,0,0-9.2-20.111c-16.6-22.176-47.249-28.081-71.412-13.834-1.591.95-3.01,1.734-3.1,1.734a4.76,4.76,0,0,1-.215-2.023,4.323,4.323,0,0,0-.645-2.684c-.6-.537-.344-.826,2.451-2.643,8.47-5.492,19.82-9.168,28.246-9.168,1.5,0,2.193-.165,1.935-.372C81.509-338.063,67.709-338.353,61.518-337.114Zm-15.263,19.2c-3.353,7.64-3.611,8.424-2.838,8.713.3.124,3.869-1.115,7.911-2.767,6.965-2.849,7.395-3.1,7.266-4.088-.129-.95-.3-1.032-3.01-1.239a15.294,15.294,0,0,1-3.139-.454c-.3-.33,3.353-1.734,7.309-2.808a49.681,49.681,0,0,1,14.016-1.734c9.287,0,15.735,1.487,24.893,5.74a65.868,65.868,0,0,1,12.683,8.92,45.714,45.714,0,0,1,11.823,17.551c2.365,6.153,2.795,8.713,2.795,16.146,0,6.029-.129,7.309-1.161,11.15A43.747,43.747,0,0,1,111.82-241.1c-6.277,5.946-12.253,9.374-21.11,12.1-3.01.909-4.213,1.074-9.673,1.074-8.814,0-14.188-1.321-22.915-5.616a52.782,52.782,0,0,1-30.1-48.233,47.616,47.616,0,0,1,2.322-15.692c2.666-8.961,7.18-16.188,14.661-23.414a49.758,49.758,0,0,1,4.084-3.717C49.136-324.519,47.889-321.5,46.255-317.911Z" transform="translate(0 0)"/><path class="a" d="M173.138-250.4A5.691,5.691,0,0,0,170-246.191c0,.619.559,1.28,1.677,2.023,2.064,1.28,3.4,4.047,3.654,7.474.129,1.321.344,3.138.473,4.047.258,1.4,0,2.147-1.591,5.2l-1.849,3.551,3.439,1.734,3.439,1.693h6.363c6.019,0,6.32-.041,6.32-.826,0-1.941-6.836-7.02-11.264-8.424-.946-.289-1.032-2.023-.172-2.725a7.005,7.005,0,0,0,1.376-2.4,12.094,12.094,0,0,1,1.29-2.56c.43-.5.516-1.693.3-4.873-.215-3.551-.43-4.5-1.333-5.823A7.374,7.374,0,0,0,173.138-250.4Z" transform="translate(-88.534 -50.991)"/><path class="a" d="M145.736-232.3c-1.5.619-2.924,2.643-3.4,4.666-.258,1.239-.172,1.4.946,1.817,3.31,1.2,4.428,3.593,4.987,10.53.344,4.666.344,5.534-.258,6.607-.774,1.363-2.881,5.575-2.881,5.74a33.074,33.074,0,0,0,3.654,2.023l3.654,1.9h13.8l-.3-.95c-.86-2.643-4.729-5.988-9.286-8.053-1.849-.867-3.439-1.858-3.568-2.23a6.043,6.043,0,0,1,1.075-2.932,10.754,10.754,0,0,0,1.29-2.849,3.346,3.346,0,0,1,.86-1.569c.817-.908.86-1.363.6-5.327-.3-4.873-1.247-7.433-3.31-8.878C152.1-232.877,147.671-233.125,145.736-232.3Z" transform="translate(-72.696 -61.703)"/><path class="a" d="M107.841-211.357c-2.451,1.28-3.31,3.3-3.568,8.631-.258,4.171-.215,4.666.559,5.616a3.768,3.768,0,0,1,.86,1.569,11.772,11.772,0,0,0,1.333,2.767c1.849,3.138,1.591,3.675-2.709,5.575-5.159,2.23-8.083,4.832-9.115,8.011l-.3.908,16.552.041c19.3.041,18.444.289,13.973-4.336a23.993,23.993,0,0,0-9.5-5.74c-.946-.289-1.032-2.4-.129-3.138a8.652,8.652,0,0,0,1.5-2.808,9.3,9.3,0,0,1,1.419-2.643c.731-.454.43-8.713-.387-10.613A7.711,7.711,0,0,0,107.841-211.357Z" transform="translate(-45.721 -73.807)"/></g></svg>