<svg xmlns="http://www.w3.org/2000/svg" width="33.369" height="35" viewBox="0 0 33.369 35"><defs><style>.a{fill:none;}.b{fill:#3a3768;}</style></defs><path class="a" d="M0,0H33.369V35H0Z"/><path class="b" d="M21.856,13.75a4.26,4.26,0,0,0,4.157-4.375,4.169,4.169,0,1,0-8.328,0A4.271,4.271,0,0,0,21.856,13.75Zm-11.123,0A4.26,4.26,0,0,0,14.89,9.375,4.26,4.26,0,0,0,10.733,5,4.271,4.271,0,0,0,6.562,9.375,4.271,4.271,0,0,0,10.733,13.75Zm0,2.917c-3.24,0-9.733,1.706-9.733,5.1v3.646H20.465V21.771C20.465,18.373,13.972,16.667,10.733,16.667Zm11.123,0c-.4,0-.862.029-1.349.073a6.221,6.221,0,0,1,2.739,5.031v3.646h8.342V21.771C31.588,18.373,25.1,16.667,21.856,16.667Z" transform="translate(0.39 2.292)"/></svg>