<svg xmlns="http://www.w3.org/2000/svg" width="54.494" height="53.814" viewBox="0 0 54.494 53.814"><defs><style>.a{fill:#6c63ff;stroke:#3a3768;stroke-width:2px;}.b{fill:#fff;}</style></defs><g transform="translate(-212.694 1)"><ellipse class="a" cx="26.247" cy="25.907" rx="26.247" ry="25.907" transform="translate(213.694 0)"/><path class="b" d="M897.6,253.607H875.857a1.492,1.492,0,0,1-1.5-1.48V239.173a1.492,1.492,0,0,1,1.5-1.48H897.6a1.492,1.492,0,0,1,1.5,1.48v12.953A1.492,1.492,0,0,1,897.6,253.607Zm-21.748-14.434v12.953h21.749V239.173Z" transform="translate(-646.79 -216.412)"/><path class="b" d="M904.437,215.644h-13.5v-5.922c0-4.289,2.839-7.4,6.749-7.4s6.749,3.113,6.749,7.4Zm-12-1.48h10.5v-4.441c0-3.487-2.159-5.922-5.249-5.922s-5.249,2.435-5.249,5.922Z" transform="translate(-657.747 -192.883)"/><ellipse class="b" cx="1.5" cy="1.48" rx="1.5" ry="1.48" transform="translate(238.441 27.387)"/></g></svg>