<svg xmlns="http://www.w3.org/2000/svg" width="105" height="90" viewBox="0 0 105 90"><defs><style>.a{fill:rgba(0,0,0,0);}.b{fill:#fff;}</style></defs><path class="a" d="M0,0H105V90H0Z"/><path class="b" d="M65.25,27.25H60.875v-7.5C60.875,9.4,51.075,1,39,1S17.125,9.4,17.125,19.75v7.5H12.75C7.938,27.25,4,30.625,4,34.75v37.5c0,4.125,3.938,7.5,8.75,7.5h52.5c4.813,0,8.75-3.375,8.75-7.5V34.75C74,30.625,70.063,27.25,65.25,27.25ZM39,61c-4.812,0-8.75-3.375-8.75-7.5S34.188,46,39,46s8.75,3.375,8.75,7.5S43.813,61,39,61ZM52.563,27.25H25.438v-7.5c0-6.412,6.081-11.625,13.563-11.625S52.563,13.338,52.563,19.75Z" transform="translate(13.5 2.75)"/></svg>