<svg xmlns="http://www.w3.org/2000/svg" width="30" height="30" viewBox="0 0 30 30"><defs><style>.a{fill:none;}.b{fill:#3a3768;}</style></defs><path class="a" d="M0,0H30V30H0Z"/><path class="b" d="M21.75,19.6a3.64,3.64,0,0,0-2.45.962l-8.913-5.187A4.092,4.092,0,0,0,10.5,14.5a4.092,4.092,0,0,0-.113-.875L19.2,8.488A3.742,3.742,0,1,0,18,5.75a4.092,4.092,0,0,0,.113.875L9.3,11.763a3.75,3.75,0,1,0,0,5.475l8.9,5.2a3.527,3.527,0,0,0-.1.813,3.65,3.65,0,1,0,3.65-3.65Z" transform="translate(0.75 0.5)"/></svg>